<svg width="50" height="50" viewBox="0 0 50 50" fill="none" xmlns="http://www.w3.org/2000/svg">
<path d="M20.1838 18.5882C20.1838 18.1739 20.3484 17.7766 20.6414 17.4836C20.9344 17.1906 21.3317 17.026 21.746 17.0259H31.6899C32.1042 17.026 32.5015 17.1906 32.7945 17.4836C33.0875 17.7766 33.2521 18.1739 33.2522 18.5882L33.2522 28.5321C33.245 28.9417 33.0773 29.3322 32.7851 29.6193C32.4929 29.9065 32.0996 30.0674 31.6899 30.0674C31.2802 30.0674 30.8869 29.9065 30.5947 29.6193C30.3024 29.3322 30.1347 28.9417 30.1276 28.5321L30.0326 22.4553L19.5363 32.9516C19.2433 33.2446 18.8458 33.4092 18.4314 33.4092C18.017 33.4092 17.6196 33.2446 17.3266 32.9516C17.0335 32.6585 16.8689 32.2611 16.8689 31.8467C16.8689 31.4323 17.0335 31.0348 17.3266 30.7418L27.8228 20.2455L21.746 20.1505C21.3317 20.1505 20.9344 19.9858 20.6414 19.6929C20.3484 19.3999 20.1838 19.0026 20.1838 18.5882Z" fill="#222222"/>
<circle cx="25" cy="25" r="23.5" stroke="#222222" stroke-width="3"/>
</svg>
