<svg width="120" height="105" viewBox="0 0 120 105" fill="none" xmlns="http://www.w3.org/2000/svg">
<path fill-rule="evenodd" clip-rule="evenodd" d="M53.9185 88.0095C51.2767 85.4327 57.6759 84.0939 65.8429 85.5116L70.0617 86.2529C60.22 76.3541 50.8362 67.2517 46.9336 53.8136C45.9006 50.2668 45.4841 49.4883 43.9526 48.2857C33.4488 40.06 25.1254 21.4341 25.7485 7.6649C25.9619 2.59297 27.0874 0.766228 29.7213 1.13423C32.5419 1.53167 32.8859 2.12892 33.2333 7.63981C34.0077 20.7004 40.8009 39.8785 45.316 41.7984C45.4005 41.8343 45.4964 41.0226 45.5801 40.0057C46.4979 25.6605 62.2848 22.048 72.7305 33.8078C81.6146 43.8506 70.6687 58.3428 57.0585 54.6104C51.1214 52.988 60.6664 68.9756 72.951 81.2163C75.6828 83.9317 78.1009 86.213 78.3121 86.3028C78.5652 86.4104 77.5444 83.4203 76.0291 79.7185C71.4169 68.184 70.9922 63.7932 74.3788 63.6795C77.2955 63.6165 79.4545 66.0382 80.8445 71.09C83.4119 80.4017 86.6172 87.2783 91.7027 94.6534C97.753 103.391 90.0682 101.777 86.0885 98.1302C80.45 92.8757 65.5312 87.8852 59.2766 89.2353C57.5534 89.6553 54.9678 89.0572 53.9185 88.0095ZM60.3222 50.6851C68.7639 49.112 70.2983 37.1843 62.7131 31.7036C57.9438 28.2721 52.4609 38.1199 53.7212 47.9288C54.0181 50.1599 56.8032 51.3441 60.3222 50.6851Z" fill="#F67A3D"/>
</svg>
