<svg width="35" height="29" viewBox="0 0 35 29" fill="none" xmlns="http://www.w3.org/2000/svg">
<path d="M31.6507 21.1476V11.3424L18.1699 18.6132C17.6675 18.8902 17.1372 19.0286 16.5789 19.0286C16.0207 19.0286 15.4904 18.8902 14.988 18.6132L0.837335 10.9685C0.530317 10.8023 0.313731 10.5946 0.187574 10.3453C0.0614181 10.096 -0.00110174 9.81901 1.46898e-05 9.51434C0.00113112 9.20966 0.0642095 8.93267 0.189249 8.68339C0.314289 8.43411 0.530317 8.22637 0.837335 8.06018L14.988 0.415498C15.2392 0.277007 15.4977 0.172862 15.7634 0.103063C16.0291 0.0332634 16.301 -0.00108196 16.5789 2.59672e-05C16.8569 0.00113389 17.1293 0.0360335 17.3962 0.104725C17.663 0.173416 17.9209 0.277007 18.1699 0.415498L34.1208 9.05732C34.3999 9.19581 34.6165 9.3969 34.7706 9.66058C34.9246 9.92427 35.0011 10.2079 35 10.5115V21.1476C35 21.6184 34.8392 22.0134 34.5177 22.3325C34.1962 22.6516 33.7987 22.8105 33.3253 22.8094C32.852 22.8083 32.4545 22.6488 32.133 22.3308C31.8115 22.0128 31.6507 21.6184 31.6507 21.1476ZM14.988 28.5845L6.61484 24.0974C6.05663 23.7927 5.62401 23.3773 5.317 22.851C5.00998 22.3247 4.85647 21.7569 4.85647 21.1476V14.8324L14.988 20.2751C15.4904 20.552 16.0207 20.6905 16.5789 20.6905C17.1372 20.6905 17.6675 20.552 18.1699 20.2751L28.3014 14.8324V21.1476C28.3014 21.7569 28.1479 22.3247 27.8409 22.851C27.5339 23.3773 27.1013 23.7927 26.5431 24.0974L18.1699 28.5845C17.9187 28.723 17.6608 28.8271 17.3962 28.8969C17.1316 28.9667 16.8592 29.0011 16.5789 29C16.2987 28.9989 16.0263 28.9645 15.7617 28.8969C15.4971 28.8294 15.2392 28.7252 14.988 28.5845Z" fill="#222222"/>
</svg>
