<svg width="1020" height="16" viewBox="0 0 1020 16" fill="none" xmlns="http://www.w3.org/2000/svg">
<path d="M567.964 1.06239C570.482 0.608382 573.596 2.41731 574.824 4.55965C580.378 14.2286 563.544 17.1654 563.133 7.67382C563.02 4.97106 565.268 1.54477 567.964 1.06239Z" fill="#E2F164"/>
<path d="M450.213 14.2501C447.496 16.8251 439.643 14.2359 440.494 7.75211C441.346 1.26833 444.779 4.78687 448.539 2.42462C451.979 4.5244 453.058 11.5686 450.213 14.2572V14.2501Z" fill="#E2F164"/>
<path d="M606.256 1.85707C611.478 7.08524 603.83 14.6615 598.297 10.8804C590.622 5.63808 600.333 -4.07339 606.256 1.85707Z" fill="#E2F164"/>
<path d="M533.913 3.89998C534.516 3.71554 541.284 4.87181 541.589 5.113C543.157 6.35442 543.994 11.0009 542.674 12.7247C541.355 14.4485 535.744 14.8032 533.743 14.4272C529.962 13.7178 530.076 5.09171 533.913 3.90704V3.89998Z" fill="#E2F164"/>
<path d="M478.581 14.2289C477.787 14.988 473.481 14.463 473.247 14.307C472.24 13.6401 473.119 11.0509 470.466 13.6047C466.203 12.4484 468.643 6.86548 470.58 4.40392C473.857 4.11307 477.29 1.75791 479.525 5.51056C480.788 7.63871 480.291 12.6044 478.581 14.2289Z" fill="#E2F164"/>
<path d="M501.275 4.63759C501.53 4.55247 506.425 4.62339 506.673 4.70852C511.979 6.58839 511.845 17.8392 501.871 14.3703C497.26 12.7671 498.104 5.65201 501.275 4.63049V4.63759Z" fill="#E2F164"/>
<path d="M421.107 5.40447C428.74 13.0375 411.041 21.2592 412.041 8.35549C412.431 3.27629 418.128 2.42505 421.107 5.40447Z" fill="#E2F164"/>
<path d="M773.964 1.06239C776.482 0.608382 779.596 2.41731 780.824 4.55965C786.378 14.2286 769.544 17.1654 769.133 7.67382C769.02 4.97106 771.268 1.54477 773.964 1.06239Z" fill="#E2F164"/>
<path d="M656.213 14.2501C653.496 16.8251 645.643 14.2359 646.494 7.75211C647.346 1.26833 650.779 4.78687 654.539 2.42462C657.979 4.5244 659.058 11.5686 656.213 14.2572V14.2501Z" fill="#E2F164"/>
<path d="M812.256 1.85707C817.478 7.08524 809.83 14.6615 804.297 10.8804C796.622 5.63808 806.333 -4.07339 812.256 1.85707Z" fill="#E2F164"/>
<path d="M739.913 3.89998C740.516 3.71554 747.284 4.87181 747.589 5.113C749.157 6.35442 749.994 11.0009 748.674 12.7247C747.355 14.4485 741.744 14.8032 739.743 14.4272C735.962 13.7178 736.076 5.09171 739.913 3.90704V3.89998Z" fill="#E2F164"/>
<path d="M684.581 14.2289C683.787 14.988 679.481 14.463 679.247 14.307C678.24 13.6401 679.119 11.0509 676.466 13.6047C672.203 12.4484 674.643 6.86548 676.58 4.40392C679.857 4.11307 683.29 1.75791 685.525 5.51056C686.788 7.63871 686.291 12.6044 684.581 14.2289Z" fill="#E2F164"/>
<path d="M707.275 4.63759C707.53 4.55247 712.425 4.62339 712.673 4.70852C717.979 6.58839 717.845 17.8392 707.871 14.3703C703.26 12.7671 704.104 5.65201 707.275 4.63049V4.63759Z" fill="#E2F164"/>
<path d="M627.107 5.40447C634.74 13.0375 617.041 21.2592 618.041 8.35549C618.431 3.27629 624.128 2.42505 627.107 5.40447Z" fill="#E2F164"/>
<path d="M979.964 1.06239C982.482 0.608382 985.596 2.41731 986.824 4.55965C992.378 14.2286 975.544 17.1654 975.133 7.67382C975.02 4.97106 977.268 1.54477 979.964 1.06239Z" fill="#E2F164"/>
<path d="M862.213 14.2501C859.496 16.8251 851.643 14.2359 852.494 7.75211C853.346 1.26833 856.779 4.78687 860.539 2.42462C863.979 4.5244 865.058 11.5686 862.213 14.2572V14.2501Z" fill="#E2F164"/>
<path d="M1018.26 1.85707C1023.48 7.08524 1015.83 14.6615 1010.3 10.8804C1002.62 5.63808 1012.33 -4.07339 1018.26 1.85707Z" fill="#E2F164"/>
<path d="M945.913 3.89998C946.516 3.71554 953.284 4.87181 953.589 5.113C955.157 6.35442 955.994 11.0009 954.674 12.7247C953.355 14.4485 947.744 14.8032 945.743 14.4272C941.962 13.7178 942.076 5.09171 945.913 3.90704V3.89998Z" fill="#E2F164"/>
<path d="M890.581 14.2289C889.787 14.988 885.481 14.463 885.247 14.307C884.24 13.6401 885.119 11.0509 882.466 13.6047C878.203 12.4484 880.643 6.86548 882.58 4.40392C885.857 4.11307 889.29 1.75791 891.525 5.51056C892.788 7.63871 892.291 12.6044 890.581 14.2289Z" fill="#E2F164"/>
<path d="M913.275 4.63759C913.53 4.55247 918.425 4.62339 918.673 4.70852C923.979 6.58839 923.845 17.8392 913.871 14.3703C909.26 12.7671 910.104 5.65201 913.275 4.63049V4.63759Z" fill="#E2F164"/>
<path d="M833.107 5.40447C840.74 13.0375 823.041 21.2592 824.041 8.35549C824.431 3.27629 830.128 2.42505 833.107 5.40447Z" fill="#E2F164"/>
<path d="M361.964 1.06239C364.482 0.608382 367.596 2.41731 368.824 4.55965C374.378 14.2286 357.544 17.1654 357.133 7.67382C357.02 4.97106 359.268 1.54477 361.964 1.06239Z" fill="#E2F164"/>
<path d="M244.213 14.2501C241.496 16.8251 233.643 14.2359 234.494 7.75211C235.346 1.26833 238.779 4.78687 242.539 2.42462C245.979 4.5244 247.058 11.5686 244.213 14.2572V14.2501Z" fill="#E2F164"/>
<path d="M400.256 1.85707C405.478 7.08524 397.83 14.6615 392.297 10.8804C384.622 5.63808 394.333 -4.07339 400.256 1.85707Z" fill="#E2F164"/>
<path d="M327.913 3.89998C328.516 3.71554 335.284 4.87181 335.589 5.113C337.157 6.35442 337.994 11.0009 336.674 12.7247C335.355 14.4485 329.744 14.8032 327.743 14.4272C323.962 13.7178 324.076 5.09171 327.913 3.90704V3.89998Z" fill="#E2F164"/>
<path d="M272.581 14.2289C271.787 14.988 267.481 14.463 267.247 14.307C266.24 13.6401 267.119 11.0509 264.466 13.6047C260.203 12.4484 262.643 6.86548 264.58 4.40392C267.857 4.11307 271.29 1.75791 273.525 5.51056C274.788 7.63871 274.291 12.6044 272.581 14.2289Z" fill="#E2F164"/>
<path d="M295.275 4.63759C295.53 4.55247 300.425 4.62339 300.673 4.70852C305.979 6.58839 305.845 17.8392 295.871 14.3703C291.26 12.7671 292.104 5.65201 295.275 4.63049V4.63759Z" fill="#E2F164"/>
<path d="M215.107 5.40447C222.74 13.0375 205.041 21.2592 206.041 8.35549C206.431 3.27629 212.128 2.42505 215.107 5.40447Z" fill="#E2F164"/>
<path d="M155.964 1.06239C158.482 0.608382 161.596 2.41731 162.824 4.55965C168.378 14.2286 151.544 17.1654 151.133 7.67382C151.02 4.97106 153.268 1.54477 155.964 1.06239Z" fill="#E2F164"/>
<path d="M38.2129 14.2501C35.496 16.8251 27.6431 14.2359 28.4943 7.75211C29.3456 1.26833 32.779 4.78687 36.5388 2.42462C39.9793 4.5244 41.0575 11.5686 38.2129 14.2572V14.2501Z" fill="#E2F164"/>
<path d="M194.256 1.85707C199.478 7.08524 191.83 14.6615 186.297 10.8804C178.622 5.63808 188.333 -4.07339 194.256 1.85707Z" fill="#E2F164"/>
<path d="M121.913 3.89998C122.516 3.71554 129.284 4.87181 129.589 5.113C131.157 6.35442 131.994 11.0009 130.674 12.7247C129.355 14.4485 123.744 14.8032 121.743 14.4272C117.962 13.7178 118.076 5.09171 121.913 3.90704V3.89998Z" fill="#E2F164"/>
<path d="M66.5815 14.2289C65.787 14.988 61.481 14.463 61.2469 14.307C60.2396 13.6401 61.1192 11.0509 58.4661 13.6047C54.2027 12.4484 56.643 6.86548 58.5796 4.40392C61.857 4.11307 65.2904 1.75791 67.525 5.51056C68.7877 7.63871 68.2911 12.6044 66.5815 14.2289Z" fill="#E2F164"/>
<path d="M89.2748 4.63759C89.5302 4.55247 94.425 4.62339 94.6733 4.70852C99.9795 6.58839 99.8447 17.8392 89.8707 14.3703C85.2597 12.7671 86.1039 5.65201 89.2748 4.63049V4.63759Z" fill="#E2F164"/>
<path d="M9.10695 5.40447C16.7399 13.0375 -0.959221 21.2592 0.0410118 8.35549C0.431174 3.27629 6.12754 2.42505 9.10695 5.40447Z" fill="#E2F164"/>
</svg>
