<svg width="342" height="76" viewBox="0 0 342 76" fill="none" xmlns="http://www.w3.org/2000/svg">
<path d="M0 71V5.00572C0 2.24207 2.24207 0.00256574 5.00573 0.00572835L330.829 0.378587C335.149 0.383531 337.43 5.49538 334.548 8.71387L307.58 38.8342C305.73 40.9002 305.915 44.0769 307.992 45.9144L332.115 67.2551C335.563 70.3053 333.405 76 328.802 76H5C2.23858 76 0 73.7614 0 71Z" fill="#F67A3D"/>
<path d="M39.4318 25.7273C39.4318 27.2945 39.1383 28.6368 38.5511 29.7543C37.9688 30.867 37.1733 31.7192 36.1648 32.3111C35.161 32.9029 34.0223 33.1989 32.7486 33.1989C31.4749 33.1989 30.3338 32.9029 29.3253 32.3111C28.3215 31.7145 27.526 30.8598 26.9389 29.7472C26.3565 28.6297 26.0653 27.2898 26.0653 25.7273C26.0653 24.16 26.3565 22.8201 26.9389 21.7074C27.526 20.59 28.3215 19.7353 29.3253 19.1435C30.3338 18.5516 31.4749 18.2557 32.7486 18.2557C34.0223 18.2557 35.161 18.5516 36.1648 19.1435C37.1733 19.7353 37.9688 20.59 38.5511 21.7074C39.1383 22.8201 39.4318 24.16 39.4318 25.7273ZM36.7827 25.7273C36.7827 24.6241 36.6098 23.6937 36.2642 22.9361C35.9233 22.1738 35.4498 21.5985 34.8438 21.2102C34.2377 20.8172 33.5393 20.6207 32.7486 20.6207C31.9579 20.6207 31.2595 20.8172 30.6534 21.2102C30.0473 21.5985 29.5715 22.1738 29.2259 22.9361C28.8849 23.6937 28.7145 24.6241 28.7145 25.7273C28.7145 26.8305 28.8849 27.7633 29.2259 28.5256C29.5715 29.2831 30.0473 29.8584 30.6534 30.2514C31.2595 30.6397 31.9579 30.8338 32.7486 30.8338C33.5393 30.8338 34.2377 30.6397 34.8438 30.2514C35.4498 29.8584 35.9233 29.2831 36.2642 28.5256C36.6098 27.7633 36.7827 26.8305 36.7827 25.7273ZM41.2127 24.2003V22.0909H50.7582V24.2003H47.2283V33H44.7425V24.2003H41.2127ZM57.7663 33V22.0909H66.978V33H64.4993V24.2003H60.2237V33H57.7663ZM74.4513 33.2131C73.3576 33.2131 72.413 32.9858 71.6175 32.5312C70.8268 32.072 70.2184 31.4233 69.7923 30.5852C69.3661 29.7424 69.1531 28.7505 69.1531 27.6094C69.1531 26.4872 69.3661 25.5024 69.7923 24.6548C70.2231 23.8026 70.8245 23.1397 71.5962 22.6662C72.368 22.188 73.2747 21.9489 74.3164 21.9489C74.9888 21.9489 75.6232 22.0578 76.2198 22.2756C76.8211 22.4886 77.3514 22.8201 77.8107 23.2699C78.2747 23.7197 78.6393 24.2926 78.9045 24.9886C79.1696 25.6799 79.3022 26.5038 79.3022 27.4602V28.2486H70.3604V26.5156H76.8377C76.833 26.0232 76.7264 25.5852 76.5181 25.2017C76.3098 24.8134 76.0186 24.508 75.6445 24.2855C75.2752 24.063 74.8443 23.9517 74.3519 23.9517C73.8263 23.9517 73.3647 24.0795 72.967 24.3352C72.5692 24.5862 72.2591 24.9176 72.0366 25.3295C71.8188 25.7367 71.7075 26.1842 71.7028 26.6719V28.1847C71.7028 28.8191 71.8188 29.3636 72.0508 29.8182C72.2828 30.268 72.6071 30.6136 73.0238 30.8551C73.4405 31.0919 73.9281 31.2102 74.4869 31.2102C74.8609 31.2102 75.1995 31.1581 75.5025 31.054C75.8055 30.9451 76.0683 30.7865 76.2908 30.5781C76.5134 30.3698 76.6815 30.1117 76.7951 29.804L79.1957 30.0739C79.0442 30.7083 78.7553 31.2623 78.3292 31.7358C77.9078 32.2045 77.368 32.5691 76.7099 32.8295C76.0517 33.0852 75.2989 33.2131 74.4513 33.2131ZM81.4773 37.0909V22.0909H84.0057V23.8949H84.1548C84.2874 23.6297 84.4744 23.348 84.7159 23.0497C84.9574 22.7467 85.2841 22.4886 85.696 22.2756C86.108 22.0578 86.6335 21.9489 87.2727 21.9489C88.1155 21.9489 88.8755 22.1643 89.5526 22.5952C90.2344 23.0213 90.7741 23.6534 91.1719 24.4915C91.5743 25.3248 91.7756 26.3475 91.7756 27.5597C91.7756 28.7576 91.5791 29.7756 91.1861 30.6136C90.7931 31.4517 90.258 32.0909 89.581 32.5312C88.9039 32.9716 88.1368 33.1918 87.2798 33.1918C86.6548 33.1918 86.1364 33.0876 85.7244 32.8793C85.3125 32.6709 84.9811 32.42 84.7301 32.1264C84.4839 31.8281 84.2921 31.5464 84.1548 31.2812H84.0483V37.0909H81.4773ZM83.9986 27.5455C83.9986 28.2509 84.098 28.8688 84.2969 29.3991C84.5005 29.9295 84.7917 30.3437 85.1705 30.642C85.554 30.9356 86.018 31.0824 86.5625 31.0824C87.1307 31.0824 87.6065 30.9309 87.9901 30.6278C88.3736 30.3201 88.6624 29.901 88.8565 29.3707C89.0554 28.8357 89.1548 28.2273 89.1548 27.5455C89.1548 26.8684 89.0578 26.267 88.8636 25.7415C88.6695 25.2159 88.3807 24.804 87.9972 24.5057C87.6136 24.2074 87.1354 24.0582 86.5625 24.0582C86.0133 24.0582 85.5469 24.2027 85.1634 24.4915C84.7798 24.7803 84.4886 25.1851 84.2898 25.706C84.0956 26.2268 83.9986 26.84 83.9986 27.5455ZM93.9773 33V22.0909H98.5582C99.8509 22.0909 100.871 22.349 101.619 22.8651C102.372 23.3812 102.749 24.1009 102.749 25.0241C102.749 25.6349 102.536 26.1345 102.109 26.5227C101.688 26.9062 101.113 27.1643 100.384 27.2969C100.956 27.3442 101.458 27.4886 101.889 27.7301C102.325 27.9716 102.666 28.2888 102.912 28.6818C103.158 29.0748 103.281 29.527 103.281 30.0384C103.281 30.6397 103.123 31.1629 102.805 31.608C102.493 32.0483 102.036 32.3916 101.435 32.6378C100.838 32.8793 100.114 33 99.2614 33H93.9773ZM96.3849 30.9759H99.2614C99.7348 30.9759 100.107 30.8646 100.376 30.642C100.646 30.4148 100.781 30.107 100.781 29.7188C100.781 29.2689 100.646 28.9162 100.376 28.6605C100.107 28.4001 99.7348 28.2699 99.2614 28.2699H96.3849V30.9759ZM96.3849 26.608H98.608C98.9583 26.608 99.259 26.5582 99.5099 26.4588C99.7609 26.3546 99.9527 26.2102 100.085 26.0256C100.218 25.8362 100.284 25.6113 100.284 25.3509C100.284 24.9768 100.13 24.6832 99.8224 24.4702C99.5194 24.2571 99.098 24.1506 98.5582 24.1506H96.3849V26.608ZM110.162 33.2131C109.096 33.2131 108.173 32.9787 107.392 32.5099C106.61 32.0412 106.004 31.3854 105.574 30.5426C105.147 29.6998 104.934 28.715 104.934 27.5881C104.934 26.4612 105.147 25.474 105.574 24.6264C106.004 23.7789 106.61 23.1207 107.392 22.652C108.173 22.1832 109.096 21.9489 110.162 21.9489C111.227 21.9489 112.15 22.1832 112.931 22.652C113.713 23.1207 114.316 23.7789 114.743 24.6264C115.173 25.474 115.389 26.4612 115.389 27.5881C115.389 28.715 115.173 29.6998 114.743 30.5426C114.316 31.3854 113.713 32.0412 112.931 32.5099C112.15 32.9787 111.227 33.2131 110.162 33.2131ZM110.176 31.1534C110.753 31.1534 111.236 30.9948 111.625 30.6776C112.013 30.3556 112.302 29.9247 112.491 29.3849C112.685 28.8452 112.782 28.2438 112.782 27.581C112.782 26.9134 112.685 26.3097 112.491 25.7699C112.302 25.2254 112.013 24.7921 111.625 24.4702C111.236 24.1482 110.753 23.9872 110.176 23.9872C109.584 23.9872 109.092 24.1482 108.699 24.4702C108.31 24.7921 108.019 25.2254 107.825 25.7699C107.636 26.3097 107.541 26.9134 107.541 27.581C107.541 28.2438 107.636 28.8452 107.825 29.3849C108.019 29.9247 108.31 30.3556 108.699 30.6776C109.092 30.9948 109.584 31.1534 110.176 31.1534ZM124.787 22.0909V24.2003H120.085V33H117.571V22.0909H124.787ZM131.158 33.2131C130.092 33.2131 129.169 32.9787 128.388 32.5099C127.607 32.0412 127 31.3854 126.57 30.5426C126.143 29.6998 125.93 28.715 125.93 27.5881C125.93 26.4612 126.143 25.474 126.57 24.6264C127 23.7789 127.607 23.1207 128.388 22.652C129.169 22.1832 130.092 21.9489 131.158 21.9489C132.223 21.9489 133.146 22.1832 133.928 22.652C134.709 23.1207 135.313 23.7789 135.739 24.6264C136.17 25.474 136.385 26.4612 136.385 27.5881C136.385 28.715 136.17 29.6998 135.739 30.5426C135.313 31.3854 134.709 32.0412 133.928 32.5099C133.146 32.9787 132.223 33.2131 131.158 33.2131ZM131.172 31.1534C131.75 31.1534 132.232 30.9948 132.621 30.6776C133.009 30.3556 133.298 29.9247 133.487 29.3849C133.681 28.8452 133.778 28.2438 133.778 27.581C133.778 26.9134 133.681 26.3097 133.487 25.7699C133.298 25.2254 133.009 24.7921 132.621 24.4702C132.232 24.1482 131.75 23.9872 131.172 23.9872C130.58 23.9872 130.088 24.1482 129.695 24.4702C129.306 24.7921 129.015 25.2254 128.821 25.7699C128.632 26.3097 128.537 26.9134 128.537 27.581C128.537 28.2438 128.632 28.8452 128.821 29.3849C129.015 29.9247 129.306 30.3556 129.695 30.6776C130.088 30.9948 130.58 31.1534 131.172 31.1534ZM145.126 37.0909C144.776 37.0909 144.451 37.0625 144.153 37.0057C143.859 36.9536 143.625 36.892 143.45 36.821L144.047 34.8182C144.421 34.9271 144.754 34.9792 145.048 34.9744C145.342 34.9697 145.6 34.8774 145.822 34.6974C146.049 34.5223 146.241 34.2287 146.397 33.8168L146.618 33.2273L142.662 22.0909H145.389L147.903 30.3295H148.017L150.538 22.0909H153.272L148.904 34.321C148.701 34.8987 148.431 35.3935 148.095 35.8054C147.759 36.2221 147.347 36.5393 146.859 36.7571C146.376 36.9796 145.798 37.0909 145.126 37.0909ZM155.051 37.0909V22.0909H157.58V23.8949H157.729C157.862 23.6297 158.049 23.348 158.29 23.0497C158.532 22.7467 158.858 22.4886 159.27 22.2756C159.682 22.0578 160.208 21.9489 160.847 21.9489C161.69 21.9489 162.45 22.1643 163.127 22.5952C163.809 23.0213 164.348 23.6534 164.746 24.4915C165.149 25.3248 165.35 26.3475 165.35 27.5597C165.35 28.7576 165.153 29.7756 164.76 30.6136C164.367 31.4517 163.832 32.0909 163.155 32.5312C162.478 32.9716 161.711 33.1918 160.854 33.1918C160.229 33.1918 159.711 33.0876 159.299 32.8793C158.887 32.6709 158.555 32.42 158.304 32.1264C158.058 31.8281 157.866 31.5464 157.729 31.2812H157.623V37.0909H155.051ZM157.573 27.5455C157.573 28.2509 157.672 28.8688 157.871 29.3991C158.075 29.9295 158.366 30.3437 158.745 30.642C159.128 30.9356 159.592 31.0824 160.137 31.0824C160.705 31.0824 161.181 30.9309 161.564 30.6278C161.948 30.3201 162.237 29.901 162.431 29.3707C162.63 28.8357 162.729 28.2273 162.729 27.5455C162.729 26.8684 162.632 26.267 162.438 25.7415C162.244 25.2159 161.955 24.804 161.571 24.5057C161.188 24.2074 160.71 24.0582 160.137 24.0582C159.587 24.0582 159.121 24.2027 158.738 24.4915C158.354 24.7803 158.063 25.1851 157.864 25.706C157.67 26.2268 157.573 26.84 157.573 27.5455ZM172.31 33.2131C171.245 33.2131 170.321 32.9787 169.54 32.5099C168.759 32.0412 168.153 31.3854 167.722 30.5426C167.296 29.6998 167.083 28.715 167.083 27.5881C167.083 26.4612 167.296 25.474 167.722 24.6264C168.153 23.7789 168.759 23.1207 169.54 22.652C170.321 22.1832 171.245 21.9489 172.31 21.9489C173.375 21.9489 174.299 22.1832 175.08 22.652C175.861 23.1207 176.465 23.7789 176.891 24.6264C177.322 25.474 177.537 26.4612 177.537 27.5881C177.537 28.715 177.322 29.6998 176.891 30.5426C176.465 31.3854 175.861 32.0412 175.08 32.5099C174.299 32.9787 173.375 33.2131 172.31 33.2131ZM172.324 31.1534C172.902 31.1534 173.385 30.9948 173.773 30.6776C174.161 30.3556 174.45 29.9247 174.64 29.3849C174.834 28.8452 174.931 28.2438 174.931 27.581C174.931 26.9134 174.834 26.3097 174.64 25.7699C174.45 25.2254 174.161 24.7921 173.773 24.4702C173.385 24.1482 172.902 23.9872 172.324 23.9872C171.732 23.9872 171.24 24.1482 170.847 24.4702C170.459 24.7921 170.167 25.2254 169.973 25.7699C169.784 26.3097 169.689 26.9134 169.689 27.581C169.689 28.2438 169.784 28.8452 169.973 29.3849C170.167 29.9247 170.459 30.3556 170.847 30.6776C171.24 30.9948 171.732 31.1534 172.324 31.1534ZM179.719 33V22.0909H182.29V26.4943H183.228L186.509 22.0909H189.606L185.565 27.446L189.648 33H186.538L183.548 28.8878H182.29V33H179.719ZM194.245 33.2202C193.554 33.2202 192.931 33.0971 192.377 32.8509C191.828 32.5999 191.393 32.2306 191.071 31.7429C190.753 31.2552 190.595 30.6539 190.595 29.9389C190.595 29.3234 190.708 28.8144 190.936 28.4119C191.163 28.0095 191.473 27.6875 191.866 27.446C192.259 27.2045 192.702 27.0223 193.194 26.8991C193.691 26.7713 194.205 26.679 194.735 26.6222C195.375 26.5559 195.893 26.4967 196.291 26.4446C196.689 26.3878 196.977 26.3026 197.157 26.1889C197.342 26.0705 197.434 25.8883 197.434 25.642V25.5994C197.434 25.0644 197.276 24.6501 196.958 24.3565C196.641 24.063 196.184 23.9162 195.588 23.9162C194.958 23.9162 194.458 24.0535 194.089 24.3281C193.725 24.6027 193.478 24.9271 193.35 25.3011L190.95 24.9602C191.139 24.2973 191.452 23.7434 191.887 23.2983C192.323 22.8485 192.856 22.5123 193.485 22.2898C194.115 22.0625 194.811 21.9489 195.574 21.9489C196.099 21.9489 196.622 22.0104 197.143 22.1335C197.664 22.2566 198.14 22.4602 198.571 22.7443C199.002 23.0237 199.347 23.4048 199.608 23.8878C199.873 24.3707 200.005 24.9744 200.005 25.6989V33H197.534V31.5014H197.449C197.292 31.8045 197.072 32.0885 196.788 32.3537C196.509 32.6141 196.156 32.8248 195.73 32.9858C195.308 33.142 194.814 33.2202 194.245 33.2202ZM194.913 31.331C195.429 31.331 195.877 31.2292 196.255 31.0256C196.634 30.8172 196.925 30.5426 197.129 30.2017C197.337 29.8608 197.441 29.4891 197.441 29.0866V27.8011C197.361 27.8674 197.224 27.929 197.029 27.9858C196.84 28.0426 196.627 28.0923 196.39 28.1349C196.154 28.1776 195.919 28.2154 195.687 28.2486C195.455 28.2817 195.254 28.3101 195.083 28.3338C194.7 28.3859 194.357 28.4711 194.054 28.5895C193.751 28.7079 193.511 28.8736 193.336 29.0866C193.161 29.295 193.074 29.5649 193.074 29.8963C193.074 30.3698 193.246 30.7273 193.592 30.9688C193.938 31.2102 194.378 31.331 194.913 31.331ZM45 49.8835V52H25V49.8835H45ZM51.282 57V46.0909H53.853V50.4943H54.7905L58.0717 46.0909H61.1683L57.1271 51.446L61.2109 57H58.1001L55.1101 52.8878H53.853V57H51.282ZM76.3725 42.0568L77.2674 43.7188C76.9502 43.9934 76.5951 44.1922 76.2021 44.3153C75.8091 44.4384 75.3474 44.5189 74.8171 44.5568C74.2915 44.59 73.6665 44.6136 72.9421 44.6278C72.1277 44.6468 71.4625 44.8007 70.9464 45.0895C70.4303 45.3783 70.0349 45.8163 69.7603 46.4034C69.4857 46.9858 69.3058 47.7292 69.2205 48.6335H69.3413C69.6822 47.9659 70.1604 47.4569 70.7759 47.1065C71.3915 46.7562 72.1135 46.581 72.9421 46.581C73.8465 46.581 74.6443 46.7846 75.3356 47.1918C76.0316 47.5942 76.5737 48.179 76.962 48.946C77.355 49.7131 77.5515 50.6411 77.5515 51.7301C77.5515 52.8523 77.3408 53.8253 76.9194 54.6491C76.498 55.4683 75.899 56.1004 75.1225 56.5455C74.3507 56.9905 73.4345 57.2131 72.3739 57.2131C71.3181 57.2131 70.3995 56.9834 69.6183 56.5241C68.8417 56.0601 68.2404 55.3759 67.8143 54.4716C67.3929 53.5625 67.1822 52.4427 67.1822 51.1122V50.1321C67.1822 47.5658 67.6604 45.6506 68.6168 44.3864C69.5733 43.1222 70.9914 42.4782 72.8711 42.4545C73.4298 42.4451 73.9293 42.4427 74.3697 42.4474C74.8147 42.4522 75.203 42.4309 75.5344 42.3835C75.8659 42.3362 76.1452 42.2273 76.3725 42.0568ZM72.3881 55.1534C72.9137 55.1534 73.3683 55.0185 73.7518 54.7486C74.1353 54.474 74.4289 54.0857 74.6325 53.5838C74.8408 53.0819 74.945 52.4877 74.945 51.8011C74.945 51.1241 74.8408 50.5488 74.6325 50.0753C74.4241 49.5971 74.1282 49.2325 73.7447 48.9815C73.3612 48.7306 72.9042 48.6051 72.3739 48.6051C71.9762 48.6051 71.6187 48.6761 71.3015 48.8182C70.9843 48.9602 70.7144 49.1686 70.4918 49.4432C70.2693 49.7178 70.0988 50.0516 69.9805 50.4446C69.8621 50.8376 69.7982 51.2898 69.7887 51.8011C69.7887 52.8286 70.0207 53.6454 70.4847 54.2514C70.9487 54.8527 71.5832 55.1534 72.3881 55.1534ZM84.4975 57.2131C83.4322 57.2131 82.5089 56.9787 81.7276 56.5099C80.9464 56.0412 80.3403 55.3854 79.9094 54.5426C79.4833 53.6998 79.2702 52.715 79.2702 51.5881C79.2702 50.4612 79.4833 49.474 79.9094 48.6264C80.3403 47.7789 80.9464 47.1207 81.7276 46.652C82.5089 46.1832 83.4322 45.9489 84.4975 45.9489C85.5629 45.9489 86.4862 46.1832 87.2674 46.652C88.0487 47.1207 88.6523 47.7789 89.0785 48.6264C89.5094 49.474 89.7248 50.4612 89.7248 51.5881C89.7248 52.715 89.5094 53.6998 89.0785 54.5426C88.6523 55.3854 88.0487 56.0412 87.2674 56.5099C86.4862 56.9787 85.5629 57.2131 84.4975 57.2131ZM84.5117 55.1534C85.0894 55.1534 85.5723 54.9948 85.9606 54.6776C86.3488 54.3556 86.6377 53.9247 86.8271 53.3849C87.0212 52.8452 87.1183 52.2438 87.1183 51.581C87.1183 50.9134 87.0212 50.3097 86.8271 49.7699C86.6377 49.2254 86.3488 48.7921 85.9606 48.4702C85.5723 48.1482 85.0894 47.9872 84.5117 47.9872C83.9199 47.9872 83.4274 48.1482 83.0344 48.4702C82.6462 48.7921 82.355 49.2254 82.1609 49.7699C81.9715 50.3097 81.8768 50.9134 81.8768 51.581C81.8768 52.2438 81.9715 52.8452 82.1609 53.3849C82.355 53.9247 82.6462 54.3556 83.0344 54.6776C83.4274 54.9948 83.9199 55.1534 84.5117 55.1534ZM91.1541 57L91.1399 54.8835H91.5163C91.8004 54.8835 92.0395 54.8196 92.2337 54.6918C92.4278 54.5639 92.5888 54.3509 92.7166 54.0526C92.8445 53.7495 92.9439 53.3423 93.0149 52.831C93.0859 52.3196 93.1357 51.6828 93.1641 50.9205L93.3558 46.0909H101.31V57H98.8246V48.2003H95.6925L95.522 51.7159C95.4794 52.625 95.3776 53.4134 95.2166 54.081C95.0604 54.7438 94.8378 55.2907 94.549 55.7216C94.2649 56.1525 93.9074 56.4744 93.4766 56.6875C93.0457 56.8958 92.5367 57 91.9496 57H91.1541ZM105.639 49.642H108.857C110.249 49.642 111.326 49.9806 112.088 50.6577C112.85 51.3348 113.234 52.2225 113.239 53.321C113.234 54.036 113.059 54.6705 112.713 55.2244C112.372 55.7784 111.875 56.214 111.222 56.5312C110.573 56.8438 109.785 57 108.857 57H103.899V46.0909H106.378V54.8906H108.857C109.415 54.8906 109.875 54.7486 110.234 54.4645C110.594 54.1757 110.774 53.8063 110.774 53.3565C110.774 52.883 110.594 52.4972 110.234 52.1989C109.875 51.9006 109.415 51.7514 108.857 51.7514H105.639V49.642ZM115.442 46.0909H117.921V54.8835H121.351V46.0909H123.83V54.8835H127.26V46.0909H129.739V57H115.442V46.0909ZM134.815 53.5199L139.183 46.0909H141.825V57H139.339V49.5639L134.986 57H132.337V46.0909H134.815V53.5199ZM150.744 54.0099L153.983 46.0909H156.056L151.646 57H149.849L145.538 46.0909H147.591L150.744 54.0099ZM146.944 46.0909V57H144.466V46.0909H146.944ZM154.65 57V46.0909H157.108V57H154.65ZM173.873 46.0909V55.0824H175.542V60.5085H173.027V57H164.661V46.0909H167.14V54.8906H171.415V46.0909H173.873ZM182.362 57.2131C181.268 57.2131 180.323 56.9858 179.528 56.5312C178.737 56.072 178.129 55.4233 177.702 54.5852C177.276 53.7424 177.063 52.7505 177.063 51.6094C177.063 50.4872 177.276 49.5024 177.702 48.6548C178.133 47.8026 178.735 47.1397 179.506 46.6662C180.278 46.188 181.185 45.9489 182.227 45.9489C182.899 45.9489 183.533 46.0578 184.13 46.2756C184.731 46.4886 185.262 46.8201 185.721 47.2699C186.185 47.7197 186.549 48.2926 186.815 48.9886C187.08 49.6799 187.212 50.5038 187.212 51.4602V52.2486H178.271V50.5156H184.748C184.743 50.0232 184.637 49.5852 184.428 49.2017C184.22 48.8134 183.929 48.508 183.555 48.2855C183.185 48.063 182.754 47.9517 182.262 47.9517C181.737 47.9517 181.275 48.0795 180.877 48.3352C180.479 48.5862 180.169 48.9176 179.947 49.3295C179.729 49.7367 179.618 50.1842 179.613 50.6719V52.1847C179.613 52.8191 179.729 53.3636 179.961 53.8182C180.193 54.268 180.517 54.6136 180.934 54.8551C181.351 55.0919 181.838 55.2102 182.397 55.2102C182.771 55.2102 183.11 55.1581 183.413 55.054C183.716 54.9451 183.978 54.7865 184.201 54.5781C184.424 54.3698 184.592 54.1117 184.705 53.804L187.106 54.0739C186.954 54.7083 186.665 55.2623 186.239 55.7358C185.818 56.2045 185.278 56.5691 184.62 56.8295C183.962 57.0852 183.209 57.2131 182.362 57.2131ZM188.635 57L188.62 54.8835H188.997C189.281 54.8835 189.52 54.8196 189.714 54.6918C189.908 54.5639 190.069 54.3509 190.197 54.0526C190.325 53.7495 190.424 53.3423 190.495 52.831C190.566 52.3196 190.616 51.6828 190.645 50.9205L190.836 46.0909H198.791V57H196.305V48.2003H193.173L193.002 51.7159C192.96 52.625 192.858 53.4134 192.697 54.081C192.541 54.7438 192.318 55.2907 192.029 55.7216C191.745 56.1525 191.388 56.4744 190.957 56.6875C190.526 56.8958 190.017 57 189.43 57H188.635ZM207.828 57V48.179H205.499C204.907 48.179 204.453 48.3163 204.135 48.5909C203.818 48.8655 203.662 49.2064 203.667 49.6136C203.662 50.0208 203.811 50.357 204.114 50.6222C204.417 50.8873 204.85 51.0199 205.414 51.0199H208.638V52.8949H205.414C204.542 52.8949 203.79 52.7576 203.155 52.483C202.521 52.2083 202.033 51.8201 201.692 51.3182C201.351 50.8163 201.181 50.2292 201.181 49.5568C201.181 48.8561 201.354 48.2476 201.699 47.7315C202.05 47.2107 202.547 46.8082 203.191 46.5241C203.839 46.2353 204.609 46.0909 205.499 46.0909H210.236V57H207.828ZM200.783 57L203.83 51.4034H206.365L203.311 57H200.783ZM219.103 54.0099L222.342 46.0909H224.416L220.005 57H218.208L213.897 46.0909H215.95L219.103 54.0099ZM215.304 46.0909V57H212.825V46.0909H215.304ZM223.01 57V46.0909H225.467V57H223.01Z" fill="white"/>
<path d="M252.792 32.6768C252.697 32.1257 252.386 31.653 251.764 31.7597C251.211 31.8545 250.793 32.3019 250.491 32.7485C250.087 33.3465 249.768 34.0089 249.484 34.6724C249.021 35.7566 248.669 36.8845 248.34 38.0173C248.181 38.0265 248.023 38.0393 247.864 38.0554C247.437 38.0732 247.01 38.1042 246.584 38.1529C245.962 38.2242 245.344 38.3298 244.731 38.4605C244.405 38.5301 244.081 38.6084 243.76 38.6959C243.516 38.7623 243.221 38.8042 243.018 38.9702C242.56 39.3453 242.783 39.9843 243.159 40.3236C243.604 40.7242 244.258 40.8976 244.8 41.1139C245.634 41.4463 246.472 41.7692 247.312 42.084C246.954 43.4286 246.805 44.8155 246.748 46.2082C246.716 46.9885 246.703 47.773 246.72 48.5537C246.732 49.1324 246.888 49.8051 247.526 49.9708C248.172 50.1385 248.522 49.5507 248.811 49.0773C249.209 48.4248 249.579 47.7552 249.92 47.0708C250.599 45.7109 251.155 44.2939 251.608 42.8415C252.28 42.8088 252.952 42.7636 253.626 42.8248C254.665 42.9192 256.245 43.3324 256.89 42.1531C257.236 41.5216 256.694 41.1052 256.246 40.7401C255.734 40.3238 255.181 39.9589 254.614 39.6242C254.035 39.2817 253.439 38.9636 252.84 38.658C252.752 38.6132 252.664 38.5702 252.575 38.5293C252.757 37.307 252.914 36.0794 252.934 34.842C252.945 34.1209 252.915 33.3886 252.792 32.6768Z" fill="white"/>
<path d="M237.793 16.9495C237.421 16.237 236.787 15.7298 235.981 16.1561C235.266 16.5348 234.889 17.3357 234.672 18.0835C234.381 19.0847 234.234 20.1356 234.137 21.1729C233.978 22.8664 233.992 24.5699 234.038 26.27C233.825 26.3543 233.613 26.4432 233.402 26.5363C232.825 26.753 232.254 26.9878 231.692 27.2463C230.87 27.624 230.071 28.0468 229.288 28.5023C228.873 28.7441 228.463 28.9972 228.061 29.2616C227.756 29.4626 227.371 29.6527 227.166 29.9713C226.702 30.6918 227.289 31.4666 227.953 31.7617C228.738 32.1103 229.71 32.0536 230.548 32.1055C231.836 32.1858 233.125 32.2507 234.416 32.3036C234.515 34.3069 234.919 36.2743 235.453 38.2076C235.752 39.2909 236.079 40.3711 236.444 41.4337C236.714 42.221 237.224 43.072 238.17 43.0118C239.128 42.9507 239.351 41.9877 239.538 41.2092C239.797 40.1365 240.01 39.0524 240.177 37.9611C240.51 35.7925 240.65 33.601 240.633 31.4074C241.539 31.06 242.44 30.6955 243.39 30.476C244.855 30.1375 247.201 29.9921 247.567 28.0859C247.762 27.0655 246.838 26.739 246.063 26.4407C245.18 26.1006 244.261 25.85 243.339 25.6465C242.395 25.438 241.438 25.2706 240.483 25.1218C240.344 25.1 240.204 25.0807 240.065 25.0645C239.777 23.3081 239.454 21.5557 238.937 19.8519C238.636 18.8587 238.273 17.8695 237.793 16.9495Z" fill="white"/>
</svg>
