<svg width="636" height="141" viewBox="0 0 636 141" fill="none" xmlns="http://www.w3.org/2000/svg">
<path d="M0 136V5.00571C0 2.24206 2.2421 0.00255971 5.00575 0.00571487L624.811 0.713322C629.134 0.718258 631.414 5.8358 628.527 9.05297L569.118 75.2478C567.263 77.315 567.448 80.4982 569.531 82.3362L626.087 132.251C629.541 135.299 627.385 141 622.779 141H5C2.23858 141 0 138.761 0 136Z" fill="#F67A3D"/>
<path d="M75.2557 49.2727C75.2557 52.0154 74.742 54.3645 73.7145 56.32C72.6953 58.2672 71.3033 59.7586 69.5384 60.7944C67.7817 61.8301 65.7889 62.348 63.56 62.348C61.3311 62.348 59.3342 61.8301 57.5692 60.7944C55.8126 59.7504 54.4206 58.2547 53.3931 56.3075C52.3739 54.352 51.8643 52.0071 51.8643 49.2727C51.8643 46.5301 52.3739 44.1851 53.3931 42.2379C54.4206 40.2824 55.8126 38.7868 57.5692 37.7511C59.3342 36.7153 61.3311 36.1974 63.56 36.1974C65.7889 36.1974 67.7817 36.7153 69.5384 37.7511C71.3033 38.7868 72.6953 40.2824 73.7145 42.2379C74.742 44.1851 75.2557 46.5301 75.2557 49.2727ZM70.6197 49.2727C70.6197 47.3421 70.3172 45.7139 69.7124 44.3881C69.1158 43.0541 68.2872 42.0473 67.2266 41.3679C66.166 40.6802 64.9438 40.3363 63.56 40.3363C62.1763 40.3363 60.9541 40.6802 59.8935 41.3679C58.8329 42.0473 58.0001 43.0541 57.3952 44.3881C56.7987 45.7139 56.5004 47.3421 56.5004 49.2727C56.5004 51.2034 56.7987 52.8357 57.3952 54.1697C58.0001 55.4955 58.8329 56.5022 59.8935 57.19C60.9541 57.8694 62.1763 58.2092 63.56 58.2092C64.9438 58.2092 66.166 57.8694 67.2266 57.19C68.2872 56.5022 69.1158 55.4955 69.7124 54.1697C70.3172 52.8357 70.6197 51.2034 70.6197 49.2727ZM78.3722 46.6005V42.9091H95.0768V46.6005H88.8996V62H84.5494V46.6005H78.3722ZM107.341 62V42.9091H123.461V62H119.124V46.6005H111.642V62H107.341ZM136.54 62.3729C134.626 62.3729 132.973 61.9751 131.581 61.1797C130.197 60.3759 129.132 59.2408 128.386 57.7741C127.641 56.2992 127.268 54.5633 127.268 52.5664C127.268 50.6026 127.641 48.8791 128.386 47.396C129.14 45.9045 130.193 44.7444 131.543 43.9158C132.894 43.079 134.481 42.6605 136.304 42.6605C137.48 42.6605 138.591 42.8511 139.635 43.2322C140.687 43.6051 141.615 44.1851 142.419 44.9723C143.231 45.7595 143.869 46.7621 144.333 47.9801C144.797 49.1899 145.029 50.6316 145.029 52.3054V53.685H129.381V50.6523H140.716C140.708 49.7906 140.521 49.0241 140.157 48.353C139.792 47.6735 139.283 47.1391 138.628 46.7496C137.982 46.3602 137.228 46.1655 136.366 46.1655C135.446 46.1655 134.638 46.3892 133.942 46.8366C133.246 47.2758 132.703 47.8558 132.314 48.5767C131.933 49.2893 131.738 50.0723 131.73 50.9258V53.5732C131.73 54.6835 131.933 55.6364 132.339 56.4318C132.745 57.219 133.312 57.8239 134.042 58.2464C134.771 58.6607 135.624 58.8679 136.602 58.8679C137.257 58.8679 137.849 58.7768 138.379 58.5945C138.91 58.4039 139.37 58.1263 139.759 57.7617C140.148 57.3971 140.443 56.9455 140.641 56.407L144.842 56.8793C144.577 57.9896 144.072 58.959 143.326 59.7876C142.589 60.608 141.644 61.246 140.492 61.7017C139.341 62.1491 138.023 62.3729 136.54 62.3729ZM148.835 69.1591V42.9091H153.26V46.0661H153.521C153.753 45.602 154.08 45.109 154.503 44.587C154.925 44.0567 155.497 43.6051 156.218 43.2322C156.939 42.8511 157.859 42.6605 158.977 42.6605C160.452 42.6605 161.782 43.0375 162.967 43.7915C164.16 44.5373 165.105 45.6435 165.801 47.1101C166.505 48.5684 166.857 50.3582 166.857 52.4794C166.857 54.5758 166.513 56.3572 165.826 57.8239C165.138 59.2905 164.202 60.4091 163.017 61.1797C161.832 61.9503 160.489 62.3356 158.99 62.3356C157.896 62.3356 156.989 62.1533 156.268 61.7887C155.547 61.4241 154.967 60.985 154.528 60.4712C154.097 59.9492 153.761 59.4562 153.521 58.9922H153.335V69.1591H148.835ZM153.248 52.4545C153.248 53.6892 153.422 54.7705 153.77 55.6985C154.126 56.6265 154.635 57.3516 155.298 57.8736C155.969 58.3873 156.781 58.6442 157.734 58.6442C158.729 58.6442 159.561 58.379 160.233 57.8487C160.904 57.3101 161.409 56.5768 161.749 55.6488C162.097 54.7125 162.271 53.6477 162.271 52.4545C162.271 51.2696 162.101 50.2173 161.761 49.2976C161.422 48.3778 160.916 47.657 160.245 47.1349C159.574 46.6129 158.737 46.3519 157.734 46.3519C156.773 46.3519 155.957 46.6046 155.286 47.1101C154.615 47.6155 154.105 48.324 153.757 49.2354C153.417 50.1469 153.248 51.2199 153.248 52.4545ZM170.71 62V42.9091H178.727C180.989 42.9091 182.775 43.3607 184.084 44.2638C185.401 45.167 186.06 46.4265 186.06 48.0423C186.06 49.1112 185.687 49.9853 184.941 50.6648C184.204 51.3359 183.197 51.7875 181.921 52.0195C182.924 52.1024 183.802 52.3551 184.556 52.7777C185.318 53.2003 185.915 53.7554 186.346 54.4432C186.777 55.1309 186.992 55.9222 186.992 56.8171C186.992 57.8694 186.715 58.785 186.159 59.5639C185.613 60.3345 184.813 60.9353 183.761 61.3661C182.717 61.7887 181.449 62 179.957 62H170.71ZM174.924 58.4577H179.957C180.786 58.4577 181.436 58.263 181.909 57.8736C182.381 57.4759 182.617 56.9373 182.617 56.2578C182.617 55.4706 182.381 54.8533 181.909 54.4059C181.436 53.9502 180.786 53.7223 179.957 53.7223H174.924V58.4577ZM174.924 50.8139H178.814C179.427 50.8139 179.953 50.7269 180.392 50.5529C180.832 50.3706 181.167 50.1179 181.399 49.7947C181.631 49.4633 181.747 49.0697 181.747 48.614C181.747 47.9594 181.478 47.4457 180.939 47.0728C180.409 46.6999 179.672 46.5135 178.727 46.5135H174.924V50.8139ZM199.033 62.3729C197.168 62.3729 195.553 61.9627 194.185 61.1424C192.818 60.3221 191.758 59.1745 191.004 57.6996C190.258 56.2247 189.885 54.5012 189.885 52.5291C189.885 50.5571 190.258 48.8294 191.004 47.3462C191.758 45.863 192.818 44.7113 194.185 43.891C195.553 43.0707 197.168 42.6605 199.033 42.6605C200.897 42.6605 202.513 43.0707 203.88 43.891C205.247 44.7113 206.304 45.863 207.049 47.3462C207.803 48.8294 208.18 50.5571 208.18 52.5291C208.18 54.5012 207.803 56.2247 207.049 57.6996C206.304 59.1745 205.247 60.3221 203.88 61.1424C202.513 61.9627 200.897 62.3729 199.033 62.3729ZM199.058 58.7685C200.069 58.7685 200.914 58.4909 201.593 57.9357C202.273 57.3723 202.778 56.6183 203.109 55.6737C203.449 54.729 203.619 53.6767 203.619 52.5167C203.619 51.3484 203.449 50.2919 203.109 49.3473C202.778 48.3944 202.273 47.6362 201.593 47.0728C200.914 46.5094 200.069 46.2276 199.058 46.2276C198.022 46.2276 197.16 46.5094 196.472 47.0728C195.793 47.6362 195.283 48.3944 194.944 49.3473C194.612 50.2919 194.446 51.3484 194.446 52.5167C194.446 53.6767 194.612 54.729 194.944 55.6737C195.283 56.6183 195.793 57.3723 196.472 57.9357C197.16 58.4909 198.022 58.7685 199.058 58.7685ZM224.627 42.9091V46.6005H216.399V62H211.999V42.9091H224.627ZM235.776 62.3729C233.912 62.3729 232.296 61.9627 230.929 61.1424C229.561 60.3221 228.501 59.1745 227.747 57.6996C227.001 56.2247 226.628 54.5012 226.628 52.5291C226.628 50.5571 227.001 48.8294 227.747 47.3462C228.501 45.863 229.561 44.7113 230.929 43.891C232.296 43.0707 233.912 42.6605 235.776 42.6605C237.64 42.6605 239.256 43.0707 240.623 43.891C241.99 44.7113 243.047 45.863 243.793 47.3462C244.547 48.8294 244.924 50.5571 244.924 52.5291C244.924 54.5012 244.547 56.2247 243.793 57.6996C243.047 59.1745 241.99 60.3221 240.623 61.1424C239.256 61.9627 237.64 62.3729 235.776 62.3729ZM235.801 58.7685C236.812 58.7685 237.657 58.4909 238.336 57.9357C239.016 57.3723 239.521 56.6183 239.853 55.6737C240.192 54.729 240.362 53.6767 240.362 52.5167C240.362 51.3484 240.192 50.2919 239.853 49.3473C239.521 48.3944 239.016 47.6362 238.336 47.0728C237.657 46.5094 236.812 46.2276 235.801 46.2276C234.765 46.2276 233.903 46.5094 233.216 47.0728C232.536 47.6362 232.027 48.3944 231.687 49.3473C231.355 50.2919 231.19 51.3484 231.19 52.5167C231.19 53.6767 231.355 54.729 231.687 55.6737C232.027 56.6183 232.536 57.3723 233.216 57.9357C233.903 58.4909 234.765 58.7685 235.801 58.7685ZM260.221 69.1591C259.607 69.1591 259.04 69.1094 258.518 69.0099C258.004 68.9188 257.594 68.8111 257.287 68.6868L258.331 65.1818C258.986 65.3724 259.57 65.4635 260.084 65.4553C260.598 65.447 261.049 65.2854 261.439 64.9705C261.836 64.6639 262.172 64.1502 262.445 63.4293L262.831 62.3977L255.908 42.9091H260.68L265.08 57.3267H265.279L269.691 42.9091H274.477L266.833 64.3118C266.477 65.3227 266.004 66.1886 265.416 66.9094C264.828 67.6386 264.107 68.1938 263.253 68.5749C262.408 68.9644 261.397 69.1591 260.221 69.1591ZM277.59 69.1591V42.9091H282.015V46.0661H282.276C282.508 45.602 282.835 45.109 283.258 44.587C283.68 44.0567 284.252 43.6051 284.973 43.2322C285.694 42.8511 286.614 42.6605 287.732 42.6605C289.207 42.6605 290.537 43.0375 291.722 43.7915C292.915 44.5373 293.86 45.6435 294.556 47.1101C295.26 48.5684 295.612 50.3582 295.612 52.4794C295.612 54.5758 295.268 56.3572 294.581 57.8239C293.893 59.2905 292.956 60.4091 291.772 61.1797C290.587 61.9503 289.244 62.3356 287.745 62.3356C286.651 62.3356 285.744 62.1533 285.023 61.7887C284.302 61.4241 283.722 60.985 283.283 60.4712C282.852 59.9492 282.516 59.4562 282.276 58.9922H282.089V69.1591H277.59ZM282.002 52.4545C282.002 53.6892 282.176 54.7705 282.524 55.6985C282.881 56.6265 283.39 57.3516 284.053 57.8736C284.724 58.3873 285.536 58.6442 286.489 58.6442C287.484 58.6442 288.316 58.379 288.987 57.8487C289.659 57.3101 290.164 56.5768 290.504 55.6488C290.852 54.7125 291.026 53.6477 291.026 52.4545C291.026 51.2696 290.856 50.2173 290.516 49.2976C290.177 48.3778 289.671 47.657 289 47.1349C288.329 46.6129 287.492 46.3519 286.489 46.3519C285.528 46.3519 284.712 46.6046 284.041 47.1101C283.37 47.6155 282.86 48.324 282.512 49.2354C282.172 50.1469 282.002 51.2199 282.002 52.4545ZM307.793 62.3729C305.928 62.3729 304.312 61.9627 302.945 61.1424C301.578 60.3221 300.517 59.1745 299.763 57.6996C299.018 56.2247 298.645 54.5012 298.645 52.5291C298.645 50.5571 299.018 48.8294 299.763 47.3462C300.517 45.863 301.578 44.7113 302.945 43.891C304.312 43.0707 305.928 42.6605 307.793 42.6605C309.657 42.6605 311.273 43.0707 312.64 43.891C314.007 44.7113 315.063 45.863 315.809 47.3462C316.563 48.8294 316.94 50.5571 316.94 52.5291C316.94 54.5012 316.563 56.2247 315.809 57.6996C315.063 59.1745 314.007 60.3221 312.64 61.1424C311.273 61.9627 309.657 62.3729 307.793 62.3729ZM307.817 58.7685C308.828 58.7685 309.673 58.4909 310.353 57.9357C311.032 57.3723 311.538 56.6183 311.869 55.6737C312.209 54.729 312.379 53.6767 312.379 52.5167C312.379 51.3484 312.209 50.2919 311.869 49.3473C311.538 48.3944 311.032 47.6362 310.353 47.0728C309.673 46.5094 308.828 46.2276 307.817 46.2276C306.782 46.2276 305.92 46.5094 305.232 47.0728C304.553 47.6362 304.043 48.3944 303.703 49.3473C303.372 50.2919 303.206 51.3484 303.206 52.5167C303.206 53.6767 303.372 54.729 303.703 55.6737C304.043 56.6183 304.553 57.3723 305.232 57.9357C305.92 58.4909 306.782 58.7685 307.817 58.7685ZM320.759 62V42.9091H325.258V50.6151H326.899L332.641 42.9091H338.06L330.988 52.2805L338.135 62H332.691L327.458 54.8036H325.258V62H320.759ZM346.179 62.3853C344.97 62.3853 343.88 62.1699 342.911 61.739C341.949 61.2998 341.187 60.6535 340.624 59.8001C340.069 58.9466 339.791 57.8943 339.791 56.6431C339.791 55.5659 339.99 54.6752 340.388 53.9709C340.785 53.2666 341.328 52.7031 342.016 52.2805C342.703 51.858 343.478 51.5389 344.34 51.3235C345.21 51.0998 346.109 50.9382 347.037 50.8388C348.156 50.7228 349.063 50.6192 349.759 50.5281C350.455 50.4286 350.96 50.2795 351.275 50.0806C351.598 49.8735 351.76 49.5544 351.76 49.1236V49.049C351.76 48.1127 351.482 47.3877 350.927 46.8739C350.372 46.3602 349.573 46.1033 348.528 46.1033C347.426 46.1033 346.552 46.3436 345.906 46.8242C345.268 47.3048 344.837 47.8724 344.613 48.527L340.412 47.9304C340.744 46.7704 341.291 45.8009 342.053 45.022C342.815 44.2348 343.747 43.6465 344.85 43.2571C345.952 42.8594 347.17 42.6605 348.504 42.6605C349.423 42.6605 350.339 42.7682 351.25 42.9837C352.162 43.1991 352.995 43.5554 353.749 44.0526C354.503 44.5414 355.108 45.2085 355.563 46.0536C356.027 46.8988 356.259 47.9553 356.259 49.223V62H351.934V59.3775H351.785C351.511 59.9078 351.126 60.4049 350.629 60.869C350.14 61.3247 349.523 61.6934 348.777 61.9751C348.04 62.2486 347.174 62.3853 346.179 62.3853ZM347.348 59.0792C348.251 59.0792 349.034 58.901 349.697 58.5447C350.36 58.1802 350.869 57.6996 351.226 57.103C351.59 56.5064 351.772 55.8559 351.772 55.1516V52.902C351.632 53.018 351.391 53.1257 351.052 53.2251C350.72 53.3246 350.347 53.4116 349.933 53.4862C349.519 53.5607 349.109 53.627 348.703 53.685C348.296 53.743 347.944 53.7927 347.646 53.8342C346.975 53.9253 346.374 54.0745 345.844 54.2816C345.314 54.4888 344.895 54.7788 344.589 55.1516C344.282 55.5162 344.129 55.9885 344.129 56.5685C344.129 57.3971 344.431 58.0227 345.036 58.4453C345.641 58.8679 346.411 59.0792 347.348 59.0792ZM85 91.5462V95.25H50V91.5462H85ZM95.9934 104V84.9091H100.493V92.6151H102.133L107.876 84.9091H113.295L106.222 94.2805L113.369 104H107.925L102.693 96.8036H100.493V104H95.9934ZM139.902 77.8494L141.468 80.7578C140.913 81.2384 140.291 81.5864 139.604 81.8018C138.916 82.0173 138.108 82.1581 137.18 82.2244C136.26 82.2824 135.166 82.3239 133.899 82.3487C132.474 82.3819 131.309 82.6512 130.406 83.1566C129.503 83.6621 128.811 84.4285 128.331 85.456C127.85 86.4751 127.535 87.776 127.386 89.3587H127.597C128.194 88.1903 129.031 87.2996 130.108 86.6864C131.185 86.0733 132.449 85.7667 133.899 85.7667C135.481 85.7667 136.878 86.123 138.087 86.8356C139.305 87.5399 140.254 88.5632 140.934 89.9055C141.621 91.2479 141.965 92.8719 141.965 94.7777C141.965 96.7415 141.596 98.4442 140.859 99.886C140.121 101.319 139.073 102.426 137.714 103.205C136.364 103.983 134.76 104.373 132.904 104.373C131.057 104.373 129.449 103.971 128.082 103.167C126.723 102.355 125.671 101.158 124.925 99.5753C124.188 97.9844 123.819 96.0247 123.819 93.6964V91.9812C123.819 87.4902 124.656 84.1385 126.329 81.9261C128.003 79.7138 130.485 78.5869 133.774 78.5455C134.752 78.5289 135.626 78.5247 136.397 78.533C137.176 78.5413 137.855 78.504 138.435 78.4212C139.015 78.3383 139.504 78.1477 139.902 77.8494ZM132.929 100.768C133.849 100.768 134.644 100.532 135.316 100.06C135.987 99.5794 136.501 98.9 136.857 98.0217C137.221 97.1433 137.404 96.1035 137.404 94.902C137.404 93.7171 137.221 92.7103 136.857 91.8817C136.492 91.0449 135.974 90.4068 135.303 89.9677C134.632 89.5285 133.832 89.3089 132.904 89.3089C132.208 89.3089 131.583 89.4332 131.028 89.6818C130.472 89.9304 130 90.295 129.611 90.7756C129.221 91.2562 128.923 91.8403 128.716 92.5281C128.509 93.2158 128.397 94.0071 128.38 94.902C128.38 96.7 128.786 98.1294 129.598 99.19C130.41 100.242 131.521 100.768 132.929 100.768ZM154.121 104.373C152.256 104.373 150.641 103.963 149.273 103.142C147.906 102.322 146.846 101.174 146.092 99.6996C145.346 98.2247 144.973 96.5012 144.973 94.5291C144.973 92.5571 145.346 90.8294 146.092 89.3462C146.846 87.863 147.906 86.7113 149.273 85.891C150.641 85.0707 152.256 84.6605 154.121 84.6605C155.985 84.6605 157.601 85.0707 158.968 85.891C160.335 86.7113 161.392 87.863 162.137 89.3462C162.891 90.8294 163.268 92.5571 163.268 94.5291C163.268 96.5012 162.891 98.2247 162.137 99.6996C161.392 101.174 160.335 102.322 158.968 103.142C157.601 103.963 155.985 104.373 154.121 104.373ZM154.146 100.768C155.156 100.768 156.002 100.491 156.681 99.9357C157.36 99.3723 157.866 98.6183 158.197 97.6737C158.537 96.729 158.707 95.6767 158.707 94.5167C158.707 93.3484 158.537 92.2919 158.197 91.3473C157.866 90.3944 157.36 89.6362 156.681 89.0728C156.002 88.5094 155.156 88.2276 154.146 88.2276C153.11 88.2276 152.248 88.5094 151.56 89.0728C150.881 89.6362 150.371 90.3944 150.032 91.3473C149.7 92.2919 149.534 93.3484 149.534 94.5167C149.534 95.6767 149.7 96.729 150.032 97.6737C150.371 98.6183 150.881 99.3723 151.56 99.9357C152.248 100.491 153.11 100.768 154.146 100.768ZM165.77 104L165.745 100.296H166.404C166.901 100.296 167.319 100.184 167.659 99.9606C167.999 99.7369 168.28 99.364 168.504 98.842C168.728 98.3117 168.902 97.5991 169.026 96.7042C169.15 95.8093 169.237 94.6948 169.287 93.3608L169.623 84.9091H183.543V104H179.193V88.6005H173.712L173.414 94.7528C173.339 96.3437 173.161 97.7234 172.879 98.8917C172.606 100.052 172.216 101.009 171.711 101.763C171.214 102.517 170.588 103.08 169.834 103.453C169.08 103.818 168.189 104 167.162 104H165.77ZM191.119 91.1236H196.749C199.185 91.1236 201.07 91.716 202.404 92.9009C203.738 94.0858 204.409 95.6394 204.418 97.5618C204.409 98.813 204.103 99.9233 203.498 100.893C202.901 101.862 202.031 102.625 200.888 103.18C199.753 103.727 198.373 104 196.749 104H188.074V84.9091H192.411V100.309H196.749C197.727 100.309 198.53 100.06 199.16 99.5629C199.79 99.0574 200.105 98.4111 200.105 97.6239C200.105 96.7953 199.79 96.12 199.16 95.598C198.53 95.076 197.727 94.815 196.749 94.815H191.119V91.1236ZM208.274 84.9091H212.611V100.296H218.615V84.9091H222.952V100.296H228.956V84.9091H233.293V104H208.274V84.9091ZM242.177 97.9098L249.821 84.9091H254.444V104H250.094V90.9869L242.475 104H237.839V84.9091H242.177V97.9098ZM270.052 98.7674L275.72 84.9091H279.349L271.63 104H268.486L260.941 84.9091H264.533L270.052 98.7674ZM263.402 84.9091V104H259.065V84.9091H263.402ZM276.888 104V84.9091H281.188V104H276.888ZM310.527 84.9091V100.644H313.448V110.14H309.048V104H294.407V84.9091H298.744V100.309H306.226V84.9091H310.527ZM325.383 104.373C323.469 104.373 321.816 103.975 320.423 103.18C319.04 102.376 317.975 101.241 317.229 99.7741C316.483 98.2992 316.111 96.5633 316.111 94.5664C316.111 92.6026 316.483 90.8791 317.229 89.396C317.983 87.9045 319.036 86.7444 320.386 85.9158C321.737 85.079 323.324 84.6605 325.146 84.6605C326.323 84.6605 327.433 84.8511 328.477 85.2322C329.53 85.6051 330.458 86.1851 331.262 86.9723C332.074 87.7595 332.712 88.7621 333.176 89.9801C333.64 91.1899 333.872 92.6316 333.872 94.3054V95.685H318.224V92.6523H329.559C329.55 91.7906 329.364 91.0241 328.999 90.353C328.635 89.6735 328.125 89.1391 327.471 88.7496C326.824 88.3602 326.07 88.1655 325.209 88.1655C324.289 88.1655 323.481 88.3892 322.785 88.8366C322.089 89.2758 321.546 89.8558 321.157 90.5767C320.776 91.2893 320.581 92.0723 320.573 92.9258V95.5732C320.573 96.6835 320.776 97.6364 321.182 98.4318C321.588 99.219 322.155 99.8239 322.884 100.246C323.614 100.661 324.467 100.868 325.445 100.868C326.099 100.868 326.692 100.777 327.222 100.594C327.752 100.404 328.212 100.126 328.602 99.7617C328.991 99.3971 329.285 98.9455 329.484 98.407L333.685 98.8793C333.42 99.9896 332.915 100.959 332.169 101.788C331.431 102.608 330.487 103.246 329.335 103.702C328.183 104.149 326.866 104.373 325.383 104.373ZM336.361 104L336.336 100.296H336.994C337.492 100.296 337.91 100.184 338.25 99.9606C338.589 99.7369 338.871 99.364 339.095 98.842C339.319 98.3117 339.493 97.5991 339.617 96.7042C339.741 95.8093 339.828 94.6948 339.878 93.3608L340.214 84.9091H354.134V104H349.784V88.6005H344.303L344.004 94.7528C343.93 96.3437 343.752 97.7234 343.47 98.8917C343.196 100.052 342.807 101.009 342.302 101.763C341.804 102.517 341.179 103.08 340.425 103.453C339.671 103.818 338.78 104 337.753 104H336.361ZM369.95 104V88.5632H365.873C364.837 88.5632 364.042 88.8035 363.487 89.2841C362.932 89.7647 362.658 90.3613 362.666 91.0739C362.658 91.7865 362.919 92.3748 363.449 92.8388C363.98 93.3028 364.738 93.5348 365.724 93.5348H371.367V96.8161H365.724C364.199 96.8161 362.882 96.5758 361.772 96.0952C360.661 95.6146 359.808 94.9351 359.211 94.0568C358.615 93.1785 358.316 92.151 358.316 90.9744C358.316 89.7481 358.619 88.6834 359.224 87.7802C359.837 86.8687 360.707 86.1644 361.834 85.6673C362.969 85.1618 364.315 84.9091 365.873 84.9091H374.163V104H369.95ZM357.62 104L362.952 94.206H367.389L362.045 104H357.62ZM389.681 98.7674L395.348 84.9091H398.978L391.259 104H388.115L380.57 84.9091H384.162L389.681 98.7674ZM383.031 84.9091V104H378.694V84.9091H383.031ZM396.517 104V84.9091H400.817V104H396.517Z" fill="white"/>
<path d="M488.481 69.2015C488.243 67.84 487.464 66.672 485.91 66.9357C484.527 67.17 483.483 68.2753 482.729 69.3788C481.719 70.8562 480.919 72.4926 480.21 74.1318C479.052 76.8104 478.173 79.597 477.35 82.3956C476.953 82.4185 476.556 82.45 476.16 82.4899C475.092 82.5338 474.025 82.6105 472.96 82.7308C471.404 82.9068 469.859 83.1677 468.327 83.4907C467.513 83.6626 466.703 83.8561 465.899 84.0723C465.289 84.2362 464.553 84.3398 464.046 84.7499C462.899 85.6767 463.457 87.2553 464.399 88.0935C465.51 89.0832 467.145 89.5118 468.5 90.046C470.585 90.8673 472.679 91.6652 474.781 92.4428C473.886 95.7647 473.512 99.1913 473.371 102.632C473.291 104.56 473.259 106.498 473.299 108.427C473.329 109.856 473.721 111.519 475.314 111.928C476.929 112.342 477.806 110.89 478.528 109.72C479.522 108.108 480.447 106.454 481.301 104.763C482.997 101.403 484.388 97.9027 485.52 94.3144C487.2 94.2335 488.881 94.1219 490.565 94.273C493.163 94.5063 497.114 95.527 498.726 92.6136C499.589 91.0533 498.235 90.0246 497.114 89.1227C495.836 88.0942 494.452 87.1925 493.036 86.3656C491.587 85.5194 490.097 84.7335 488.599 83.9786C488.38 83.8678 488.16 83.7616 487.939 83.6607C488.393 80.6408 488.786 77.6079 488.835 74.5508C488.863 72.7692 488.787 70.9601 488.481 69.2015Z" fill="white"/>
<path d="M450.983 30.3457C450.052 28.5854 448.467 27.3324 446.453 28.3857C444.664 29.3213 443.724 31.2999 443.181 33.1474C442.454 35.6209 442.086 38.2174 441.843 40.7801C441.445 44.9641 441.479 49.1726 441.596 53.3729C441.062 53.5812 440.532 53.801 440.006 54.0309C438.563 54.5663 437.136 55.1464 435.73 55.785C433.676 56.7182 431.677 57.7628 429.721 58.888C428.682 59.4855 427.659 60.1108 426.653 60.7639C425.89 61.2604 424.928 61.7302 424.415 62.5172C423.256 64.2973 424.722 66.2116 426.383 66.9407C428.346 67.8018 430.776 67.6617 432.869 67.7901C436.09 67.9883 439.314 68.1489 442.539 68.2794C442.788 73.2288 443.798 78.0895 445.132 82.8657C445.88 85.5423 446.697 88.2111 447.609 90.8362C448.285 92.7812 449.56 94.8837 451.924 94.7351C454.321 94.5841 454.877 92.205 455.345 90.2816C455.991 87.6313 456.525 84.9529 456.943 82.2568C457.774 76.899 458.126 71.4848 458.082 66.0652C460.348 65.2071 462.6 64.3065 464.974 63.7642C468.638 62.9278 474.503 62.5688 475.417 57.8594C475.906 55.3382 473.595 54.5317 471.659 53.7947C469.45 52.9545 467.153 52.3353 464.847 51.8325C462.486 51.3175 460.096 50.9039 457.708 50.5363C457.359 50.4823 457.011 50.4347 456.663 50.3947C455.943 46.0553 455.135 41.726 453.844 37.5165C453.091 35.0627 452.183 32.6189 450.983 30.3457Z" fill="white"/>
</svg>
