<svg width="30" height="37" viewBox="0 0 30 37" fill="none" xmlns="http://www.w3.org/2000/svg">
<path d="M15 0C18.9782 0 22.7936 1.58035 25.6066 4.3934C28.4196 7.20644 30 11.0218 30 15C30 20.1233 27.2067 24.3167 24.2633 27.325C22.7928 28.8118 21.1882 30.1597 19.47 31.3517L18.76 31.835L18.4267 32.0567L17.7983 32.4567L17.2383 32.7983L16.545 33.2017C16.0744 33.4703 15.5419 33.6116 15 33.6116C14.4581 33.6116 13.9256 33.4703 13.455 33.2017L12.7617 32.7983L11.895 32.265L11.575 32.0567L10.8917 31.6017C9.03805 30.3475 7.31151 28.9152 5.73667 27.325C2.79333 24.315 0 20.1233 0 15C0 11.0218 1.58035 7.20644 4.3934 4.3934C7.20644 1.58035 11.0218 0 15 0ZM15 10C14.3434 10 13.6932 10.1293 13.0866 10.3806C12.48 10.6319 11.9288 11.0002 11.4645 11.4645C11.0002 11.9288 10.6319 12.48 10.3806 13.0866C10.1293 13.6932 10 14.3434 10 15C10 15.6566 10.1293 16.3068 10.3806 16.9134C10.6319 17.52 11.0002 18.0712 11.4645 18.5355C11.9288 18.9998 12.48 19.3681 13.0866 19.6194C13.6932 19.8707 14.3434 20 15 20C16.3261 20 17.5979 19.4732 18.5355 18.5355C19.4732 17.5979 20 16.3261 20 15C20 13.6739 19.4732 12.4021 18.5355 11.4645C17.5979 10.5268 16.3261 10 15 10Z" fill="#222222"/>
</svg>
