<svg width="30" height="34" viewBox="0 0 30 34" fill="none" xmlns="http://www.w3.org/2000/svg">
<path d="M0.5 21.5L1.66667 20.3333L2.83333 19.1667L5.33333 21.6667L7.83333 24.1667L6.66667 25.3333L5.5 26.5L3 24L0.5 21.5Z" fill="#222222"/>
<path d="M30 22C30 17.6667 27.6667 14 24.1667 11.8333L26.1667 9.83333C26.8333 9.16667 26.8333 8.16667 26.1667 7.5L25.3333 6.66667L27 5L22 0L20.3333 1.66667L19.5 0.833333C18.8333 0.166667 17.8333 0.166667 17.1667 0.833333L3.83333 14.1667C3.16667 14.8333 3.16667 15.8333 3.83333 16.5L10.5 23.1667C10.8333 23.5 11.1667 23.6667 11.6667 23.6667C12.1667 23.6667 12.5 23.5 12.8333 23.1667L21.6667 14.3333C24.6667 15.6667 26.6667 18.6667 26.6667 22C26.6667 26.6667 23 30.3333 18.3333 30.3333H0V33.6667H30V30.3333H26.5C28.6667 28.1667 30 25.3333 30 22Z" fill="#222222"/>
</svg>
