<svg width="22" height="31" viewBox="0 0 22 31" fill="none" xmlns="http://www.w3.org/2000/svg">
<path d="M4.4 0C4.69174 0 4.97153 0.116645 5.17782 0.324275C5.38411 0.531904 5.5 0.81351 5.5 1.10714V2.21429H9.9V1.10714C9.9 0.81351 10.0159 0.531904 10.2222 0.324275C10.4285 0.116645 10.7083 0 11 0C11.2917 0 11.5715 0.116645 11.7778 0.324275C11.9841 0.531904 12.1 0.81351 12.1 1.10714V2.21429H16.5V1.10714C16.5 0.81351 16.6159 0.531904 16.8222 0.324275C17.0285 0.116645 17.3083 0 17.6 0C17.8917 0 18.1715 0.116645 18.3778 0.324275C18.5841 0.531904 18.7 0.81351 18.7 1.10714V2.21429C19.5752 2.21429 20.4146 2.56422 21.0335 3.18711C21.6523 3.81 22 4.65482 22 5.53571V19.9286H14.3C13.4248 19.9286 12.5854 20.2785 11.9665 20.9014C11.3477 21.5243 11 22.3691 11 23.25V31H3.3C2.42479 31 1.58542 30.6501 0.966548 30.0272C0.347678 29.4043 0 28.5595 0 27.6786V5.53571C0 4.65482 0.347678 3.81 0.966548 3.18711C1.58542 2.56422 2.42479 2.21429 3.3 2.21429V1.10714C3.3 0.81351 3.41589 0.531904 3.62218 0.324275C3.82847 0.116645 4.10826 0 4.4 0ZM5.5 9.96429C5.5 10.2579 5.61589 10.5395 5.82218 10.7472C6.02847 10.9548 6.30826 11.0714 6.6 11.0714H15.4C15.6917 11.0714 15.9715 10.9548 16.1778 10.7472C16.3841 10.5395 16.5 10.2579 16.5 9.96429C16.5 9.67065 16.3841 9.38905 16.1778 9.18142C15.9715 8.97379 15.6917 8.85714 15.4 8.85714H6.6C6.30826 8.85714 6.02847 8.97379 5.82218 9.18142C5.61589 9.38905 5.5 9.67065 5.5 9.96429ZM5.5 16.6071C5.5 16.9008 5.61589 17.1824 5.82218 17.39C6.02847 17.5976 6.30826 17.7143 6.6 17.7143H15.4C15.6917 17.7143 15.9715 17.5976 16.1778 17.39C16.3841 17.1824 16.5 16.9008 16.5 16.6071C16.5 16.3135 16.3841 16.0319 16.1778 15.8243C15.9715 15.6166 15.6917 15.5 15.4 15.5H6.6C6.30826 15.5 6.02847 15.6166 5.82218 15.8243C5.61589 16.0319 5.5 16.3135 5.5 16.6071ZM5.5 23.25C5.5 23.5436 5.61589 23.8252 5.82218 24.0329C6.02847 24.2405 6.30826 24.3571 6.6 24.3571H7.7C7.99174 24.3571 8.27153 24.2405 8.47782 24.0329C8.68411 23.8252 8.8 23.5436 8.8 23.25C8.8 22.9564 8.68411 22.6748 8.47782 22.4671C8.27153 22.2595 7.99174 22.1429 7.7 22.1429H6.6C6.30826 22.1429 6.02847 22.2595 5.82218 22.4671C5.61589 22.6748 5.5 22.9564 5.5 23.25ZM13.2 30.3136C13.3129 30.225 13.42 30.129 13.5212 30.0257L21.0342 22.4661C21.1369 22.3628 21.2307 22.255 21.3158 22.1429H14.3C14.0083 22.1429 13.7285 22.2595 13.5222 22.4671C13.3159 22.6748 13.2 22.9564 13.2 23.25V30.3136Z" fill="#222222"/>
</svg>
