<svg width="30" height="34" viewBox="0 0 30 34" fill="none" xmlns="http://www.w3.org/2000/svg">
<path fill-rule="evenodd" clip-rule="evenodd" d="M14.6497 15.187C14.7585 15.1616 14.8546 15.0982 14.9208 15.0081C14.9869 14.9181 15.0187 14.8074 15.0104 14.696C15.0021 14.5846 14.9542 14.4798 14.8754 14.4006C14.7967 14.3214 14.6922 14.2729 14.5808 14.2639C13.4765 14.3149 12.3873 13.9907 11.4906 13.3441C10.5938 12.6975 9.94222 11.7665 9.64174 10.7025C9.24252 9.35553 9.21396 7.92577 9.55908 6.56389C9.63119 6.62699 9.70968 6.6824 9.79329 6.72921C11.2041 7.30725 12.7491 7.47684 14.2518 7.21861C15.7544 6.96037 17.1541 6.28472 18.291 5.26884C18.5436 5.81074 18.8559 6.3159 19.2279 6.78432C20.3052 7.81899 22.0977 8.01324 22.5123 8.64699C22.5499 8.73339 22.6188 8.80232 22.7052 8.83987C22.4337 10.3113 21.7047 11.6596 20.6222 12.6926C19.5397 13.7256 18.1589 14.3907 16.6763 14.5932C16.586 14.628 16.5107 14.6933 16.4636 14.7779C16.4165 14.8625 16.4006 14.9609 16.4186 15.056C16.4367 15.1511 16.4875 15.2369 16.5623 15.2983C16.6371 15.3598 16.7311 15.393 16.8279 15.3923C27.4225 13.5585 25.5461 -0.456946 16.7452 0.0114773C4.27554 0.966234 6.55153 15.8497 14.6497 15.187ZM22.7879 7.35194C21.5219 6.39132 20.1997 5.5071 18.8283 4.70397C19.441 4.05737 20.0067 3.37218 20.5257 2.64842C21.21 3.22228 21.7652 3.93427 22.1551 4.73773C22.5449 5.54119 22.7606 6.41798 22.7879 7.31061V7.35194ZM19.7115 2.13729C18.4148 3.63562 16.7444 4.76367 14.8702 5.40661C13.6288 5.79237 10.8693 6.27595 9.97239 5.66837C9.99043 5.61004 9.99043 5.54761 9.97239 5.48927C11.6284 1.93063 17.0497 0.759576 19.7128 2.13729" fill="#222222"/>
<path fill-rule="evenodd" clip-rule="evenodd" d="M13.7665 9.91725C13.8088 9.96016 13.8592 9.99423 13.9148 10.0175C13.9703 10.0407 14.03 10.0527 14.0902 10.0527C14.1505 10.0527 14.2101 10.0407 14.2657 10.0175C14.3213 9.99423 14.3717 9.96016 14.414 9.91725C14.7584 9.5866 14.3038 7.82037 12.7731 7.95952C11.0069 8.1524 11.0069 10.084 11.7936 9.97236C12.5789 9.86214 12.634 8.44172 13.7665 9.91725ZM20.0433 10.1115C20.3878 9.78086 19.5735 7.59994 18.1944 7.79282C17.394 8.01325 16.4833 9.35239 16.9944 9.65549C17.0461 9.71099 17.1117 9.75173 17.1843 9.77352C17.2569 9.79531 17.3341 9.79737 17.4078 9.77948C17.5064 9.76922 17.5977 9.72264 17.6639 9.64879C17.7301 9.57495 17.7665 9.47912 17.766 9.37994C18.8282 8.56709 19.2704 10.8279 20.042 10.1101M17.4629 12.4288C17.5262 12.3366 17.5543 12.2247 17.5423 12.1134C17.5302 12.0022 17.4787 11.899 17.3972 11.8224C17.3156 11.7458 17.2093 11.701 17.0975 11.6959C16.9858 11.6909 16.8759 11.7261 16.7878 11.7951C16.5123 11.988 16.2078 11.9466 15.2282 11.9466C14.9427 12.0216 14.6399 11.9923 14.374 11.864C14.3036 11.7851 14.2052 11.7369 14.0997 11.7294C13.9942 11.722 13.89 11.7559 13.8092 11.824C13.7283 11.8922 13.6772 11.9891 13.6666 12.0943C13.6561 12.1995 13.687 12.3047 13.7527 12.3875C13.9362 12.7162 14.2033 12.9907 14.527 13.1831C14.8506 13.3755 15.2193 13.479 15.5958 13.4832C15.9723 13.4874 16.3432 13.3921 16.6711 13.207C16.9989 13.0218 17.272 12.7534 17.4629 12.4288ZM25.601 29.5607C22.9768 29.8571 20.3946 30.4496 17.9037 31.3269C17.1726 31.5685 16.4553 31.8486 15.7518 32.1673C15.8344 31.9194 16.7451 20.0572 16.11 19.4359C15.9777 19.2775 15.7909 19.1743 15.5864 19.1466C14.6082 19.0501 13.5309 16.8017 10.2478 15.7257C8.77996 15.3108 7.26248 15.0975 5.73715 15.0919C5.22739 15.0919 4.20651 14.9941 3.95852 15.4777C3.93415 15.5443 3.9262 15.6157 3.93532 15.686C3.94445 15.7563 3.97039 15.8234 4.01095 15.8815C4.05151 15.9396 4.10549 15.9871 4.16831 16.02C4.23114 16.0528 4.30095 16.07 4.37183 16.0701H5.61315C9.29716 16.9656 11.5043 17.2839 14.5655 19.7941C15.5038 20.6772 14.4553 23.4368 14.8411 31.5749C13.8372 31.1629 12.799 30.8402 11.7385 30.6105C9.15801 29.6709 6.95091 29.9616 4.5096 29.6709H2.75853C2.15096 29.6709 1.98563 29.6709 1.98563 28.7065C1.98563 27.3261 2.41272 26.5821 1.7652 26.527C1.65851 26.5227 1.55408 26.5584 1.47248 26.6273C1.39087 26.6962 1.33802 26.7931 1.32433 26.899C1.159 28.3745 0.191848 30.2234 2.23362 30.8585C2.90962 30.9843 3.59021 31.0716 4.27539 31.1203C6.68915 31.5887 9.13046 31.2581 11.3513 31.8367C12.616 32.4612 13.9876 32.8404 15.3935 32.954C15.3935 33.1056 15.8895 33.5189 25.5611 30.678C25.8568 30.5366 26.1232 30.3529 26.3602 30.1269C26.3945 30.0275 26.3962 29.9197 26.3652 29.8191C26.3342 29.7186 26.2721 29.6305 26.1877 29.5676C26.1033 29.5047 26.0012 29.4703 25.896 29.4693C25.7907 29.4683 25.6879 29.5008 25.6024 29.5621" fill="#222222"/>
<path fill-rule="evenodd" clip-rule="evenodd" d="M6.85401 21.2296C6.73002 20.7061 6.55092 19.7527 5.82073 19.3256C4.36783 18.8039 2.77179 18.8482 1.35005 19.4496C0.890596 19.8548 0.530678 20.3603 0.298224 20.9271C0.0657698 21.4938 -0.0329684 22.1065 0.00967172 22.7176C0.0523118 23.3287 0.235183 23.9218 0.544095 24.4507C0.853006 24.9797 1.27965 25.4304 1.79091 25.7678C2.27472 26.1896 2.86372 26.4725 3.49537 26.5865C4.12701 26.7005 4.77775 26.6414 5.37848 26.4153C7.19982 25.4372 7.43403 23.2425 6.85401 21.2296ZM4.61936 25.09C4.48031 25.1507 4.33022 25.182 4.17849 25.182C4.02677 25.182 3.87668 25.1507 3.73763 25.09C0.757629 24.2909 0.578526 21.5451 1.99895 20.1109C2.94957 20.662 4.45404 19.918 5.14427 20.3865C5.35093 20.5518 6.35528 24.1242 4.61936 25.09ZM2.59137 18.1394C2.78425 16.9807 2.96335 15.3798 2.19183 15.3798C2.06784 15.3798 1.90251 15.3798 1.81985 15.5038C1.55601 16.3343 1.41673 17.1992 1.40653 18.0705C1.47542 19.0349 2.5087 18.8558 2.59137 18.1394ZM26.5939 16.5661C26.7317 17.1736 26.8281 17.6421 26.9108 18.0292C27.2552 18.966 28.1673 18.7043 28.0019 17.6434C27.8113 16.9288 27.6822 16.1992 27.6162 15.4625C27.5883 15.0428 27.4287 14.6427 27.1601 14.319C26.9144 14.1117 26.5978 14.008 26.277 14.0297C24.6729 14.2319 23.1014 14.6393 21.6011 15.2421C20.5251 15.6692 16.0833 17.8776 15.9869 18.6767C15.9808 18.7857 16.0142 18.8933 16.081 18.9797C16.1477 19.0662 16.2433 19.1257 16.3503 19.1474C16.4573 19.1692 16.5686 19.1516 16.6638 19.0981C16.7589 19.0446 16.8316 18.9586 16.8686 18.8558C19.4336 17.5675 22.1241 16.5463 24.8979 15.8083C25.9037 15.5328 26.1379 14.6634 26.5939 16.5661ZM27.0637 27.2847C27.0253 28.259 27.1463 29.233 27.4219 30.1682C27.5459 30.3336 28.0419 30.4438 28.2623 29.7962C28.4786 29.0385 28.5709 28.2518 28.5392 27.4638C28.4808 27.3246 28.3866 27.2034 28.2661 27.1124C28.1457 27.0214 28.0033 26.9639 27.8535 26.9457C27.7036 26.9275 27.5516 26.9493 27.4129 27.0088C27.2742 27.0683 27.1537 27.1635 27.0637 27.2847ZM29.9734 21.3398C29.8627 20.4946 29.4461 19.7192 28.8024 19.1603C28.6508 19.0225 28.5406 19.0501 28.2499 19.0363C28.0486 19.0262 27.8474 19.0563 27.6579 19.1249C27.4684 19.1935 27.2945 19.2992 27.1464 19.4358C26.5402 20.8149 24.9393 19.9043 23.8219 20.8149C23.5389 21.1045 23.3269 21.4558 23.2026 21.8411C23.0783 22.2265 23.045 22.6354 23.1055 23.0358C23.3746 24.2136 24.0233 25.2703 24.9517 26.0434C25.235 26.3273 25.5897 26.5296 25.9784 26.629C26.367 26.7284 26.7752 26.7212 27.1601 26.6082C29.1606 26.0158 30.1815 23.0634 29.9734 21.3398ZM26.0428 24.8434C25.5601 24.0662 25.1002 23.275 24.6637 22.4709C24.6637 22.0025 24.6637 21.7683 24.953 21.6581C25.7521 21.2847 27.5735 21.3123 28.1673 19.6838C28.4546 19.9616 28.6757 20.3005 28.8141 20.6755C28.9524 21.0504 29.0045 21.4517 28.9663 21.8496C28.846 22.6623 28.5498 23.4391 28.0984 24.1256C27.6024 24.8434 26.6215 25.4923 26.0428 24.8434Z" fill="#222222"/>
</svg>
