<svg width="30" height="28" viewBox="0 0 30 28" fill="none" xmlns="http://www.w3.org/2000/svg">
<path d="M20.928 17.9629L20.1696 18.7091C20.1696 18.7091 18.3646 20.4813 13.4397 15.6422C8.5147 10.8031 10.3197 9.03086 10.3197 9.03086L10.7964 8.5598C11.9747 7.40356 12.0863 5.54566 11.058 4.18847L8.95803 1.41645C7.68471 -0.263565 5.22639 -0.48592 3.76807 0.947033L1.15142 3.51647C0.429758 4.228 -0.053573 5.14707 0.00475997 6.16825C0.154759 8.78215 1.35142 14.4036 8.02471 20.9623C15.103 27.9162 21.7446 28.1929 24.4596 27.9425C25.3196 27.8635 26.0663 27.432 26.6679 26.839L29.0346 24.5133C30.6346 22.9437 30.1846 20.2507 28.1379 19.1521L24.9546 17.4408C23.6113 16.721 21.9779 16.9319 20.928 17.9629Z" fill="#222222"/>
</svg>
