<svg width="42" height="59" viewBox="0 0 42 59" fill="none" xmlns="http://www.w3.org/2000/svg">
<path fill-rule="evenodd" clip-rule="evenodd" d="M17.0752 0.388687C8.78522 1.56011 0.945597 6.96672 0.194689 17.9601C-0.345974 26.1601 -0.285875 26.2201 7.58372 24.6282C14.2218 23.2765 13.8613 23.637 13.8613 18.5909C13.8613 14.2956 15.0627 11.8627 18.3368 10.1806C25.6056 6.48613 30.8321 16.218 30.8321 19.2817C30.8321 22.6458 28.4289 24.4179 20.8598 26.6106C14.6723 28.4128 12.6899 30.966 12.4495 37.3638C12.3894 39.2562 12.1794 40.7579 11.9691 40.9981C11.038 42.1395 14.2818 43.191 17.736 42.8905C28.0988 41.9594 27.9485 42.0496 27.3777 38.1446C27.0174 35.7118 27.2576 35.3513 29.7206 34.6003C35.6679 32.7981 39.062 29.374 40.8643 23.3667C45.5799 7.86779 35.2174 -2.13438 17.0752 0.388687ZM26.7772 2.1909C33.5353 3.1821 39.8432 11.9228 38.6716 18.7411C37.5902 25.0488 34.166 28.9235 27.3478 31.4765C24.0436 32.7081 22.9924 34.2699 22.9625 37.9343V39.977C19.298 40.3373 19.0576 40.3373 16.6546 40.6978C17.0752 31.837 16.4745 30.9358 27.438 27.0912C34.3165 24.6882 35.8182 18.9513 31.3427 12.2832C24.164 1.59014 5.69139 8.67878 9.20566 20.7836C9.35586 21.3542 9.44598 21.865 9.38591 21.925C9.29581 22.015 5.39095 22.886 5.0906 22.886C5.06055 22.886 4.85033 19.1916 4.67011 17.93C3.07817 7.08684 14.5823 0.448761 26.7772 2.1909ZM15.3632 46.3148C9.9566 48.7778 9.74628 55.3856 15.0027 57.278C25.4855 61.0626 34.9772 54.8452 29.0598 48.0868C27.3179 46.0444 18.427 44.903 15.3632 46.3148ZM23.0527 48.117C25.4554 48.4773 27.5581 50.3996 27.5581 52.2018C27.5581 55.5359 19.3882 57.1881 16.4446 54.4547C15.0027 53.103 14.5223 46.8253 23.0527 48.117Z" fill="#F67A3D"/>
</svg>
