<svg width="70" height="67" viewBox="0 0 70 67" fill="none" xmlns="http://www.w3.org/2000/svg">
<path d="M6.65792 48.0886C10.4535 46.5704 9.25658 45.0814 5.31497 46.4244C3.15438 47.1544 2.97911 47.3296 3.47546 48.1179C3.94262 48.877 4.67252 48.877 6.65792 48.0886Z" fill="#F67A3D"/>
<path d="M5.60758 49.461C4.00174 50.045 3.70976 50.3954 4.43969 50.9501C5.19882 51.534 6.74621 51.3296 8.17687 50.4829C10.1915 49.2566 8.23532 48.4975 5.60758 49.461Z" fill="#F67A3D"/>
<path d="M63.3301 33.3443C61.8118 32.2348 61.5198 31.7093 62.133 31.3298C62.5125 31.0962 64.9943 25.9574 66.717 21.8698C68.9068 16.6728 69.082 16.8188 60.7608 16.6728L54.8337 16.556L55.3885 15.4757C60.1769 6.07422 58.425 1.78225 51.4469 5.84065C49.6951 6.86255 47.5637 8.08881 46.7169 8.52677C44.9067 9.51947 44.9651 9.78229 45.695 4.84797C46.3666 0.264023 45.0236 -1.13748 41.9579 0.935514C41.4031 1.31508 39.4468 2.83333 37.6366 4.29318C33.7826 7.41728 34.1038 7.30053 33.2863 5.72389C31.622 2.59979 29.1402 1.49029 28.1183 3.4465C26.8044 5.95745 25.0819 15.0962 25.8702 15.3589C26.8045 15.6801 28.9359 12.2932 30.133 8.58515C30.3374 8.00121 31.5344 9.28588 31.9139 10.483C32.3811 11.972 33.1111 11.6508 37.6951 8.00121C39.4177 6.59974 40.9068 5.4903 40.936 5.4903C40.9944 5.4903 40.8483 6.45379 40.6148 7.59247C39.0965 15.3589 40.8483 14.4538 47.6804 11.0378C53.841 7.94285 53.2571 7.85526 52.0016 11.7677L50.425 16.7312C49.4031 19.9429 50.425 21.3151 53.0236 20.2348C54.1914 19.7385 62.7169 19.9136 62.7169 20.41C62.7169 20.5268 61.8995 22.1326 60.936 23.9429C58.3959 28.6436 57.987 30.0451 57.1987 31.0962C56.4396 32.0597 57.0235 34.045 58.2206 34.2786C59.4761 34.5122 61.1404 36.2641 64.2937 39.2714C54.9506 42.9502 54.7461 42.4247 59.6512 49.14C61.0235 51.0378 62.1331 52.6144 62.0747 52.6728C62.0163 52.702 60.0601 52.6145 57.6951 52.4393C51.7097 52.0013 51.184 52.3225 52.6439 55.3006C53.549 57.14 53.5198 57.14 51.33 55.8554C46.7753 53.14 43.2717 54.629 47.6513 57.432C58.2207 64.2349 59.5637 64.4101 58.2206 58.921C57.2279 54.9502 57.2571 54.8918 58.425 55.0378C60.0309 55.2422 64.5271 55.359 65.7826 55.797C69.6366 57.1692 68.9068 54.3079 63.7097 47.8553C62.2207 45.9867 60.9943 44.3516 60.9943 44.2057C60.9943 43.8553 67.3301 40.994 68.644 40.7604C69.6659 40.5853 69.7535 39.8261 69.0235 38.6874C68.1476 37.3152 66.1914 35.4173 63.3301 33.3443Z" fill="#F67A3D"/>
<path d="M28.6435 54.1905C34.8917 54.4824 40.2347 56.7014 46.3953 52.9933C54.0158 48.4386 48.0011 27.2122 43.1544 20.4093C39.9427 15.913 35.4756 13.4896 29.7822 16.4969C26.3369 18.3072 25.6362 18.8911 21.3442 23.6502C19.3004 25.8984 16.9646 28.2049 16.147 28.7305C15.3295 29.2852 14.3369 29.9568 13.9282 30.2196C4.14714 36.9641 1.9573 38.6868 1.16897 40.3218C-0.991615 44.789 -0.0865607 50.5408 3.30031 53.694C4.20542 54.5408 11.5631 59.4751 11.9135 59.4751C12.0302 59.4751 12.6143 60.1467 13.1982 60.9642C17.5486 67.0372 22.5121 68.5262 27.1544 65.1978C30.4829 62.8328 30.3369 60.935 26.5705 57.3145L25.4026 56.205L26.5997 54.0445L28.6435 54.1905ZM2.51207 44.5262C3.59236 40.8473 8.99386 35.5627 8.52671 38.6284C7.94277 42.4532 11.3003 49.4021 14.9792 52.0591L16.4975 53.1686L15.4171 53.8985C9.92806 57.7525 0.643453 50.9787 2.51207 44.5262ZM25.5778 61.6649C24.7311 62.3072 23.972 61.0809 23.972 61.0809C22.7165 59.8255 21.5485 60.3218 22.4244 61.6065C23.0376 62.4824 23.3588 62.4532 22.4829 63.3876C21.2274 64.7014 20.6727 64.4678 17.6654 61.6065C12.9354 57.0809 12.6435 56.4094 14.9501 55.4751C16.0888 55.0079 16.1179 54.7743 16.8187 56.0298C18.0741 58.278 19.5924 57.8985 22.6289 57.5481C23.0376 57.4897 23.4172 57.6649 23.68 57.9569L24.4975 58.9495C25.1398 59.5627 26.2201 61.1685 25.5778 61.6649ZM22.5996 53.6649C23.6507 54.4532 21.5777 56.0298 20.6726 56.0298C20.0595 56.0298 18.5997 54.9788 18.5997 54.5408C18.5997 53.9569 21.8697 53.1101 22.5996 53.6649ZM15.68 49.2269C9.08145 43.2707 8.96466 36.497 15.388 32.5846C19.3004 30.1904 22.7165 27.3583 25.1691 24.4678C26.0742 23.4167 27.1544 21.7524 27.7676 21.2561C28.7311 20.4386 28.8771 21.1685 28.3808 21.986C22.3078 31.6503 25.6362 43.1831 29.9866 47.9422C35.68 54.1612 45.1107 51.8546 45.1107 44.8765C45.1107 43.2999 44.4391 42.9787 43.9428 44.3802C40.7311 53.7525 34.9209 47.6795 34.8917 47.6795C35.6216 45.1685 35.9719 43.0955 39.5047 41.4021C45.7821 38.424 40.3807 28.9057 33.6653 31.0955C30.9208 32.0006 27.8552 30.5699 27.5924 30.278C27.5924 30.2488 28.2055 22.7451 33.2274 19.7086C34.658 18.8327 33.5777 17.6648 31.9135 18.4823C30.804 19.0371 30.3369 18.3655 30.7748 17.8692C31.9719 16.5261 33.9865 16.1465 35.3004 16.7013C46.8333 21.548 54.2493 53.1685 40.2347 52.9057C38.3661 52.8765 34.4245 52.2926 28.6435 51.6211C23.242 51.0372 19.7092 52.8766 15.68 49.2269ZM28.2348 34.6575C28.2348 34.278 28.5851 34.1028 29.9281 33.9568C30.8625 33.84 31.7968 33.6357 32.0304 33.5189C33.1399 32.8765 33.4026 33.1977 33.5778 35.3291C33.7822 37.7232 34.6289 39.7086 35.68 40.2634C36.0888 40.4677 36.41 40.7597 36.41 40.8765C36.41 41.1101 32.0596 44.3218 31.7092 44.3218C31.1545 44.351 28.2348 36.205 28.2348 34.6575ZM37.6654 33.0517C38.1033 33.7232 39.0377 37.1393 39.0377 38.0736C39.0377 38.8911 38.3953 38.132 37.5486 36.3218C36.3223 33.7816 36.4391 31.1831 37.6654 33.0517Z" fill="#F67A3D"/>
</svg>
