<svg width="30" height="30" viewBox="0 0 30 30" fill="none" xmlns="http://www.w3.org/2000/svg">
<path d="M5.96923 24.0324L0 30H30V0L5.96923 24.0324ZM20.0381 10.8431C20.1408 10.7406 20.2799 10.683 20.425 10.683C20.5701 10.683 20.7092 10.7406 20.8119 10.8431L22.1638 12.1951C22.2659 12.2971 22.3234 12.4355 22.3235 12.5799C22.3236 12.7243 22.2664 12.8628 22.1644 12.965C22.0624 13.0671 21.924 13.1246 21.7796 13.1247C21.6353 13.1248 21.4968 13.0675 21.3946 12.9655L20.0381 11.6135C19.9363 11.5109 19.8792 11.3722 19.8792 11.2277C19.8792 11.0832 19.9363 10.9457 20.0381 10.8431ZM18.1734 12.7126C18.2238 12.6619 18.2837 12.6216 18.3497 12.5941C18.4157 12.5666 18.4865 12.5525 18.558 12.5525C18.6295 12.5525 18.7003 12.5666 18.7663 12.5941C18.8323 12.6216 18.8922 12.6619 18.9426 12.7126L21.4564 15.2232C21.5071 15.2736 21.5474 15.3335 21.5749 15.3995C21.6023 15.4655 21.6165 15.5363 21.6165 15.6078C21.6165 15.6793 21.6023 15.7501 21.5749 15.8161C21.5474 15.8822 21.5071 15.9421 21.4564 15.9925C21.4063 16.0443 21.3464 16.0855 21.2802 16.1138C21.214 16.1421 21.1428 16.1568 21.0708 16.1571C20.9988 16.1574 20.9274 16.1434 20.861 16.1157C20.7945 16.088 20.7342 16.0473 20.6837 15.996L18.1711 13.4865C18.069 13.3839 18.0116 13.245 18.0116 13.1002C18.0116 12.9554 18.069 12.8164 18.1711 12.7138L18.1734 12.7126ZM16.3029 14.5775C16.4056 14.475 16.5448 14.4174 16.6898 14.4174C16.8349 14.4174 16.9741 14.475 17.0768 14.5775L18.4286 15.9319C18.5059 16.0078 18.5587 16.105 18.5803 16.2111C18.602 16.3173 18.5915 16.4274 18.5502 16.5276C18.5089 16.6277 18.4387 16.7132 18.3485 16.7732C18.2584 16.8332 18.1523 16.8649 18.0441 16.8643C17.972 16.8643 17.9006 16.8502 17.834 16.8226C17.7674 16.795 17.7069 16.7545 17.656 16.7034L16.3041 15.3514C16.2532 15.3005 16.2128 15.2401 16.1852 15.1736C16.1577 15.1071 16.1435 15.0359 16.1435 14.9639C16.1435 14.8919 16.1577 14.8206 16.1852 14.7541C16.2128 14.6876 16.2532 14.6272 16.3041 14.5763L16.3029 14.5775ZM14.4383 16.447C14.5412 16.3452 14.6803 16.2883 14.8251 16.2887C14.9699 16.2892 15.1086 16.3469 15.2109 16.4494L16.5605 17.8014C16.6111 17.8522 16.6513 17.9125 16.6787 17.9788C16.706 18.0452 16.72 18.1163 16.7199 18.188C16.7198 18.2598 16.7056 18.3308 16.678 18.3971C16.6505 18.4633 16.6101 18.5235 16.5593 18.5741C16.5085 18.6248 16.4482 18.665 16.3819 18.6923C16.3156 18.7197 16.2445 18.7337 16.1727 18.7336C16.101 18.7335 16.03 18.7193 15.9637 18.6917C15.8975 18.6641 15.8373 18.6238 15.7867 18.573L14.4371 17.2209C14.3346 17.1182 14.2771 16.9791 14.2771 16.834C14.2771 16.6889 14.3346 16.5497 14.4371 16.447H14.4383ZM12.569 18.3166C12.6195 18.2656 12.6797 18.2251 12.746 18.1975C12.8123 18.1699 12.8835 18.1556 12.9553 18.1556C13.0271 18.1556 13.0982 18.1699 13.1645 18.1975C13.2308 18.2251 13.291 18.2656 13.3416 18.3166L15.8519 20.826C15.9048 20.8764 15.947 20.9368 15.9762 21.0037C16.0053 21.0707 16.0208 21.1427 16.0217 21.2157C16.0226 21.2888 16.0089 21.3612 15.9814 21.4288C15.9539 21.4965 15.9132 21.5579 15.8616 21.6096C15.81 21.6613 15.7487 21.7021 15.6811 21.7297C15.6135 21.7573 15.5411 21.7711 15.4681 21.7703C15.3951 21.7695 15.323 21.7541 15.256 21.7251C15.189 21.696 15.1285 21.6538 15.0781 21.6011L12.569 19.0893C12.4668 18.9867 12.4095 18.8477 12.4095 18.7029C12.4095 18.5581 12.4668 18.4192 12.569 18.3166ZM10.2498 27.2015C10.1475 27.304 10.0087 27.3617 9.86393 27.3622C9.71914 27.3626 9.58007 27.3057 9.47712 27.2039L6.96683 24.6944C6.91609 24.6438 6.87583 24.5836 6.84835 24.5174C6.82086 24.4512 6.80668 24.3802 6.80663 24.3085C6.80658 24.2368 6.82064 24.1658 6.84803 24.0995C6.87542 24.0332 6.91558 23.973 6.96624 23.9223C7.0169 23.8715 7.07705 23.8313 7.14327 23.8038C7.20949 23.7763 7.28047 23.7621 7.35216 23.762C7.42386 23.762 7.49486 23.7761 7.56112 23.8034C7.62738 23.8308 7.68759 23.871 7.73833 23.9217L10.2486 26.4323C10.2994 26.4826 10.3396 26.5426 10.3671 26.6086C10.3946 26.6746 10.4087 26.7454 10.4087 26.8169C10.4087 26.8884 10.3946 26.9592 10.3671 27.0252C10.3396 27.0912 10.2994 27.1511 10.2486 27.2015H10.2498ZM10.9607 24.1746C10.8572 24.2777 10.7175 24.3363 10.5714 24.3378C10.4998 24.338 10.4289 24.3239 10.3629 24.2963C10.2968 24.2686 10.237 24.2281 10.1869 24.1769L8.83148 22.8249C8.7806 22.7746 8.74021 22.7147 8.71264 22.6487C8.68507 22.5827 8.67087 22.5118 8.67087 22.4403C8.67087 22.3687 8.68507 22.2979 8.71264 22.2319C8.74021 22.1658 8.7806 22.1059 8.83148 22.0556C8.88179 22.0042 8.9418 21.9632 9.00804 21.935C9.07429 21.9069 9.14546 21.8922 9.21743 21.8918C9.28939 21.8914 9.36073 21.9052 9.42731 21.9325C9.49389 21.9598 9.55439 22.0001 9.60531 22.051L10.9595 23.4053C11.0103 23.4557 11.0505 23.5156 11.078 23.5816C11.1055 23.6477 11.1196 23.7185 11.1196 23.79C11.1196 23.8615 11.1055 23.9323 11.078 23.9983C11.0505 24.0643 11.0103 24.1242 10.9595 24.1746H10.9607ZM12.8253 22.3074C12.7749 22.3585 12.7149 22.3991 12.6487 22.4268C12.5824 22.4545 12.5114 22.4687 12.4396 22.4687C12.3678 22.4687 12.2968 22.4545 12.2305 22.4268C12.1643 22.3991 12.1043 22.3585 12.0538 22.3074L10.702 20.9554C10.6513 20.9045 10.6112 20.8442 10.5838 20.7779C10.5564 20.7116 10.5424 20.6405 10.5425 20.5687C10.5426 20.497 10.5569 20.4259 10.5844 20.3597C10.612 20.2934 10.6523 20.2333 10.7031 20.1826C10.7539 20.1319 10.8142 20.0918 10.8806 20.0644C10.9469 20.0371 11.018 20.023 11.0897 20.0231C11.1615 20.0232 11.2325 20.0375 11.2987 20.0651C11.365 20.0926 11.4251 20.1329 11.4758 20.1838L12.8277 21.5358C12.9294 21.6384 12.9865 21.7771 12.9865 21.9216C12.9865 22.0661 12.9294 22.2048 12.8277 22.3074H12.8253ZM24.1729 24.1723H14.0688L24.1729 14.067V24.1723ZM24.0331 11.0995C23.983 11.1506 23.9231 11.1912 23.8571 11.2188C23.791 11.2465 23.7201 11.2606 23.6485 11.2603C23.5762 11.2605 23.5046 11.2464 23.4378 11.2188C23.371 11.1912 23.3103 11.1507 23.2593 11.0995L21.9074 9.74746C21.8567 9.6968 21.8165 9.63665 21.7891 9.57046C21.7617 9.50426 21.7476 9.43332 21.7476 9.36167C21.7476 9.29002 21.7617 9.21907 21.7891 9.15288C21.8165 9.08668 21.8567 9.02654 21.9074 8.97587C21.958 8.92521 22.0182 8.88502 22.0844 8.8576C22.1506 8.83018 22.2215 8.81607 22.2931 8.81607C22.3648 8.81607 22.4357 8.83018 22.5019 8.8576C22.5681 8.88502 22.6282 8.92521 22.6789 8.97587L24.0308 10.3279C24.2452 10.5412 24.2464 10.8874 24.0331 11.0995ZM27.0585 10.3908C26.9558 10.4925 26.817 10.5494 26.6725 10.5492C26.528 10.5489 26.3894 10.4916 26.287 10.3897L23.7767 7.88026C23.6744 7.77763 23.617 7.63856 23.6173 7.49364C23.6175 7.34872 23.6753 7.20982 23.7779 7.1075C23.8805 7.00518 24.0195 6.94782 24.1644 6.94804C24.3094 6.94826 24.4482 7.00604 24.5505 7.10867L27.0608 9.61926C27.2741 9.83255 27.2706 10.1787 27.0585 10.3908Z" fill="#222222"/>
</svg>
