<svg width="30" height="31" viewBox="0 0 30 31" fill="none" xmlns="http://www.w3.org/2000/svg">
<path d="M24.4213 15.7124C24.9601 13.514 24.8598 11.2074 24.1321 9.06408C23.4045 6.92077 22.0797 5.02991 20.3137 3.61404C18.5478 2.19817 16.4141 1.31621 14.1639 1.07195C11.9137 0.827694 9.64049 1.2313 7.61187 2.23527C5.58326 3.23925 3.88363 4.80181 2.71302 6.73907C1.5424 8.67632 0.949511 10.9077 1.00412 13.1705C1.05873 15.4333 1.75857 17.6334 3.02127 19.512C4.28398 21.3905 6.057 22.8693 8.13169 23.7742M1 12.8813H24.7601" stroke="#222222" stroke-width="2" stroke-linecap="round" stroke-linejoin="round"/>
<path d="M9.35104 18.3644C8.75455 16.5929 8.40316 14.748 8.30664 12.8812C8.53067 8.53618 10.1313 4.37506 12.877 1C15.6218 4.37534 17.2217 8.53642 17.4451 12.8812C17.4041 13.6432 17.3227 14.4024 17.2013 15.1556M20.3043 17.5682L29.0004 21.3358L20.3043 25.1034L11.6125 21.3358L20.3043 17.5682Z" stroke="#222222" stroke-width="2" stroke-linecap="round" stroke-linejoin="round"/>
<path d="M15.5549 23.0535L15.5635 27.1534C15.5635 27.1534 16.9985 29.0524 20.3043 29.0524C23.6101 29.0524 25.0516 27.1534 25.0516 27.1534V23.0535M11.6104 27.9626V21.3358" stroke="#222222" stroke-width="2" stroke-linecap="round" stroke-linejoin="round"/>
</svg>
